G75*
%MOIN*%
%OFA0B0*%
%FSLAX24Y24*%
%IPPOS*%
%LPD*%
%AMOC8*
5,1,8,0,0,1.08239X$1,22.5*
%
%ADD10C,0.0000*%
%ADD11C,0.0060*%
%ADD12C,0.0030*%
%ADD13C,0.0080*%
%ADD14C,0.0010*%
%ADD15C,0.0050*%
D10*
X002936Y005451D02*
X036794Y005451D01*
X036897Y005453D01*
X037000Y005459D01*
X037103Y005468D01*
X037205Y005482D01*
X037306Y005499D01*
X037407Y005520D01*
X037507Y005545D01*
X037606Y005573D01*
X037704Y005606D01*
X037801Y005642D01*
X037896Y005681D01*
X037990Y005724D01*
X038082Y005770D01*
X038172Y005820D01*
X038260Y005873D01*
X038347Y005930D01*
X038431Y005990D01*
X038512Y006052D01*
X038592Y006118D01*
X038669Y006187D01*
X038743Y006258D01*
X038814Y006332D01*
X038883Y006409D01*
X038949Y006489D01*
X039011Y006570D01*
X039071Y006654D01*
X039128Y006741D01*
X039181Y006829D01*
X039231Y006919D01*
X039277Y007011D01*
X039320Y007105D01*
X039359Y007200D01*
X039395Y007297D01*
X039428Y007395D01*
X039456Y007494D01*
X039481Y007594D01*
X039502Y007695D01*
X039519Y007796D01*
X039533Y007898D01*
X039542Y008001D01*
X039548Y008104D01*
X039550Y008207D01*
X039550Y042066D01*
X039548Y042169D01*
X039542Y042272D01*
X039533Y042375D01*
X039519Y042477D01*
X039502Y042578D01*
X039481Y042679D01*
X039456Y042779D01*
X039428Y042878D01*
X039395Y042976D01*
X039359Y043073D01*
X039320Y043168D01*
X039277Y043262D01*
X039231Y043354D01*
X039181Y043444D01*
X039128Y043532D01*
X039071Y043619D01*
X039011Y043703D01*
X038949Y043784D01*
X038883Y043864D01*
X038814Y043941D01*
X038743Y044015D01*
X038669Y044086D01*
X038592Y044155D01*
X038512Y044221D01*
X038431Y044283D01*
X038347Y044343D01*
X038260Y044400D01*
X038172Y044453D01*
X038082Y044503D01*
X037990Y044549D01*
X037896Y044592D01*
X037801Y044631D01*
X037704Y044667D01*
X037606Y044700D01*
X037507Y044728D01*
X037407Y044753D01*
X037306Y044774D01*
X037205Y044791D01*
X037103Y044805D01*
X037000Y044814D01*
X036897Y044820D01*
X036794Y044822D01*
X002936Y044822D01*
X002833Y044820D01*
X002730Y044814D01*
X002627Y044805D01*
X002525Y044791D01*
X002424Y044774D01*
X002323Y044753D01*
X002223Y044728D01*
X002124Y044700D01*
X002026Y044667D01*
X001929Y044631D01*
X001834Y044592D01*
X001740Y044549D01*
X001648Y044503D01*
X001558Y044453D01*
X001470Y044400D01*
X001383Y044343D01*
X001299Y044283D01*
X001218Y044221D01*
X001138Y044155D01*
X001061Y044086D01*
X000987Y044015D01*
X000916Y043941D01*
X000847Y043864D01*
X000781Y043784D01*
X000719Y043703D01*
X000659Y043619D01*
X000602Y043532D01*
X000549Y043444D01*
X000499Y043354D01*
X000453Y043262D01*
X000410Y043168D01*
X000371Y043073D01*
X000335Y042976D01*
X000302Y042878D01*
X000274Y042779D01*
X000249Y042679D01*
X000228Y042578D01*
X000211Y042477D01*
X000197Y042375D01*
X000188Y042272D01*
X000182Y042169D01*
X000180Y042066D01*
X000180Y008207D01*
X000182Y008104D01*
X000188Y008001D01*
X000197Y007898D01*
X000211Y007796D01*
X000228Y007695D01*
X000249Y007594D01*
X000274Y007494D01*
X000302Y007395D01*
X000335Y007297D01*
X000371Y007200D01*
X000410Y007105D01*
X000453Y007011D01*
X000499Y006919D01*
X000549Y006829D01*
X000602Y006741D01*
X000659Y006654D01*
X000719Y006570D01*
X000781Y006489D01*
X000847Y006409D01*
X000916Y006332D01*
X000987Y006258D01*
X001061Y006187D01*
X001138Y006118D01*
X001218Y006052D01*
X001299Y005990D01*
X001383Y005930D01*
X001470Y005873D01*
X001558Y005820D01*
X001648Y005770D01*
X001740Y005724D01*
X001834Y005681D01*
X001929Y005642D01*
X002026Y005606D01*
X002124Y005573D01*
X002223Y005545D01*
X002323Y005520D01*
X002424Y005499D01*
X002525Y005482D01*
X002627Y005468D01*
X002730Y005459D01*
X002833Y005453D01*
X002936Y005451D01*
X002326Y008207D02*
X002328Y008256D01*
X002334Y008305D01*
X002344Y008353D01*
X002357Y008400D01*
X002375Y008446D01*
X002396Y008490D01*
X002420Y008533D01*
X002448Y008573D01*
X002479Y008612D01*
X002513Y008647D01*
X002550Y008680D01*
X002589Y008709D01*
X002631Y008735D01*
X002674Y008758D01*
X002720Y008777D01*
X002766Y008793D01*
X002814Y008805D01*
X002862Y008813D01*
X002911Y008817D01*
X002961Y008817D01*
X003010Y008813D01*
X003058Y008805D01*
X003106Y008793D01*
X003152Y008777D01*
X003198Y008758D01*
X003241Y008735D01*
X003283Y008709D01*
X003322Y008680D01*
X003359Y008647D01*
X003393Y008612D01*
X003424Y008573D01*
X003452Y008533D01*
X003476Y008490D01*
X003497Y008446D01*
X003515Y008400D01*
X003528Y008353D01*
X003538Y008305D01*
X003544Y008256D01*
X003546Y008207D01*
X003544Y008158D01*
X003538Y008109D01*
X003528Y008061D01*
X003515Y008014D01*
X003497Y007968D01*
X003476Y007924D01*
X003452Y007881D01*
X003424Y007841D01*
X003393Y007802D01*
X003359Y007767D01*
X003322Y007734D01*
X003283Y007705D01*
X003241Y007679D01*
X003198Y007656D01*
X003152Y007637D01*
X003106Y007621D01*
X003058Y007609D01*
X003010Y007601D01*
X002961Y007597D01*
X002911Y007597D01*
X002862Y007601D01*
X002814Y007609D01*
X002766Y007621D01*
X002720Y007637D01*
X002674Y007656D01*
X002631Y007679D01*
X002589Y007705D01*
X002550Y007734D01*
X002513Y007767D01*
X002479Y007802D01*
X002448Y007841D01*
X002420Y007881D01*
X002396Y007924D01*
X002375Y007968D01*
X002357Y008014D01*
X002344Y008061D01*
X002334Y008109D01*
X002328Y008158D01*
X002326Y008207D01*
X009767Y007814D02*
X009769Y007840D01*
X009775Y007866D01*
X009785Y007891D01*
X009798Y007914D01*
X009814Y007934D01*
X009834Y007952D01*
X009856Y007967D01*
X009879Y007979D01*
X009905Y007987D01*
X009931Y007991D01*
X009957Y007991D01*
X009983Y007987D01*
X010009Y007979D01*
X010033Y007967D01*
X010054Y007952D01*
X010074Y007934D01*
X010090Y007914D01*
X010103Y007891D01*
X010113Y007866D01*
X010119Y007840D01*
X010121Y007814D01*
X010119Y007788D01*
X010113Y007762D01*
X010103Y007737D01*
X010090Y007714D01*
X010074Y007694D01*
X010054Y007676D01*
X010032Y007661D01*
X010009Y007649D01*
X009983Y007641D01*
X009957Y007637D01*
X009931Y007637D01*
X009905Y007641D01*
X009879Y007649D01*
X009855Y007661D01*
X009834Y007676D01*
X009814Y007694D01*
X009798Y007714D01*
X009785Y007737D01*
X009775Y007762D01*
X009769Y007788D01*
X009767Y007814D01*
X011499Y007814D02*
X011501Y007840D01*
X011507Y007866D01*
X011517Y007891D01*
X011530Y007914D01*
X011546Y007934D01*
X011566Y007952D01*
X011588Y007967D01*
X011611Y007979D01*
X011637Y007987D01*
X011663Y007991D01*
X011689Y007991D01*
X011715Y007987D01*
X011741Y007979D01*
X011765Y007967D01*
X011786Y007952D01*
X011806Y007934D01*
X011822Y007914D01*
X011835Y007891D01*
X011845Y007866D01*
X011851Y007840D01*
X011853Y007814D01*
X011851Y007788D01*
X011845Y007762D01*
X011835Y007737D01*
X011822Y007714D01*
X011806Y007694D01*
X011786Y007676D01*
X011764Y007661D01*
X011741Y007649D01*
X011715Y007641D01*
X011689Y007637D01*
X011663Y007637D01*
X011637Y007641D01*
X011611Y007649D01*
X011587Y007661D01*
X011566Y007676D01*
X011546Y007694D01*
X011530Y007714D01*
X011517Y007737D01*
X011507Y007762D01*
X011501Y007788D01*
X011499Y007814D01*
X036184Y008207D02*
X036186Y008256D01*
X036192Y008305D01*
X036202Y008353D01*
X036215Y008400D01*
X036233Y008446D01*
X036254Y008490D01*
X036278Y008533D01*
X036306Y008573D01*
X036337Y008612D01*
X036371Y008647D01*
X036408Y008680D01*
X036447Y008709D01*
X036489Y008735D01*
X036532Y008758D01*
X036578Y008777D01*
X036624Y008793D01*
X036672Y008805D01*
X036720Y008813D01*
X036769Y008817D01*
X036819Y008817D01*
X036868Y008813D01*
X036916Y008805D01*
X036964Y008793D01*
X037010Y008777D01*
X037056Y008758D01*
X037099Y008735D01*
X037141Y008709D01*
X037180Y008680D01*
X037217Y008647D01*
X037251Y008612D01*
X037282Y008573D01*
X037310Y008533D01*
X037334Y008490D01*
X037355Y008446D01*
X037373Y008400D01*
X037386Y008353D01*
X037396Y008305D01*
X037402Y008256D01*
X037404Y008207D01*
X037402Y008158D01*
X037396Y008109D01*
X037386Y008061D01*
X037373Y008014D01*
X037355Y007968D01*
X037334Y007924D01*
X037310Y007881D01*
X037282Y007841D01*
X037251Y007802D01*
X037217Y007767D01*
X037180Y007734D01*
X037141Y007705D01*
X037099Y007679D01*
X037056Y007656D01*
X037010Y007637D01*
X036964Y007621D01*
X036916Y007609D01*
X036868Y007601D01*
X036819Y007597D01*
X036769Y007597D01*
X036720Y007601D01*
X036672Y007609D01*
X036624Y007621D01*
X036578Y007637D01*
X036532Y007656D01*
X036489Y007679D01*
X036447Y007705D01*
X036408Y007734D01*
X036371Y007767D01*
X036337Y007802D01*
X036306Y007841D01*
X036278Y007881D01*
X036254Y007924D01*
X036233Y007968D01*
X036215Y008014D01*
X036202Y008061D01*
X036192Y008109D01*
X036186Y008158D01*
X036184Y008207D01*
X036184Y042066D02*
X036186Y042115D01*
X036192Y042164D01*
X036202Y042212D01*
X036215Y042259D01*
X036233Y042305D01*
X036254Y042349D01*
X036278Y042392D01*
X036306Y042432D01*
X036337Y042471D01*
X036371Y042506D01*
X036408Y042539D01*
X036447Y042568D01*
X036489Y042594D01*
X036532Y042617D01*
X036578Y042636D01*
X036624Y042652D01*
X036672Y042664D01*
X036720Y042672D01*
X036769Y042676D01*
X036819Y042676D01*
X036868Y042672D01*
X036916Y042664D01*
X036964Y042652D01*
X037010Y042636D01*
X037056Y042617D01*
X037099Y042594D01*
X037141Y042568D01*
X037180Y042539D01*
X037217Y042506D01*
X037251Y042471D01*
X037282Y042432D01*
X037310Y042392D01*
X037334Y042349D01*
X037355Y042305D01*
X037373Y042259D01*
X037386Y042212D01*
X037396Y042164D01*
X037402Y042115D01*
X037404Y042066D01*
X037402Y042017D01*
X037396Y041968D01*
X037386Y041920D01*
X037373Y041873D01*
X037355Y041827D01*
X037334Y041783D01*
X037310Y041740D01*
X037282Y041700D01*
X037251Y041661D01*
X037217Y041626D01*
X037180Y041593D01*
X037141Y041564D01*
X037099Y041538D01*
X037056Y041515D01*
X037010Y041496D01*
X036964Y041480D01*
X036916Y041468D01*
X036868Y041460D01*
X036819Y041456D01*
X036769Y041456D01*
X036720Y041460D01*
X036672Y041468D01*
X036624Y041480D01*
X036578Y041496D01*
X036532Y041515D01*
X036489Y041538D01*
X036447Y041564D01*
X036408Y041593D01*
X036371Y041626D01*
X036337Y041661D01*
X036306Y041700D01*
X036278Y041740D01*
X036254Y041783D01*
X036233Y041827D01*
X036215Y041873D01*
X036202Y041920D01*
X036192Y041968D01*
X036186Y042017D01*
X036184Y042066D01*
X002326Y042066D02*
X002328Y042115D01*
X002334Y042164D01*
X002344Y042212D01*
X002357Y042259D01*
X002375Y042305D01*
X002396Y042349D01*
X002420Y042392D01*
X002448Y042432D01*
X002479Y042471D01*
X002513Y042506D01*
X002550Y042539D01*
X002589Y042568D01*
X002631Y042594D01*
X002674Y042617D01*
X002720Y042636D01*
X002766Y042652D01*
X002814Y042664D01*
X002862Y042672D01*
X002911Y042676D01*
X002961Y042676D01*
X003010Y042672D01*
X003058Y042664D01*
X003106Y042652D01*
X003152Y042636D01*
X003198Y042617D01*
X003241Y042594D01*
X003283Y042568D01*
X003322Y042539D01*
X003359Y042506D01*
X003393Y042471D01*
X003424Y042432D01*
X003452Y042392D01*
X003476Y042349D01*
X003497Y042305D01*
X003515Y042259D01*
X003528Y042212D01*
X003538Y042164D01*
X003544Y042115D01*
X003546Y042066D01*
X003544Y042017D01*
X003538Y041968D01*
X003528Y041920D01*
X003515Y041873D01*
X003497Y041827D01*
X003476Y041783D01*
X003452Y041740D01*
X003424Y041700D01*
X003393Y041661D01*
X003359Y041626D01*
X003322Y041593D01*
X003283Y041564D01*
X003241Y041538D01*
X003198Y041515D01*
X003152Y041496D01*
X003106Y041480D01*
X003058Y041468D01*
X003010Y041460D01*
X002961Y041456D01*
X002911Y041456D01*
X002862Y041460D01*
X002814Y041468D01*
X002766Y041480D01*
X002720Y041496D01*
X002674Y041515D01*
X002631Y041538D01*
X002589Y041564D01*
X002550Y041593D01*
X002513Y041626D01*
X002479Y041661D01*
X002448Y041700D01*
X002420Y041740D01*
X002396Y041783D01*
X002375Y041827D01*
X002357Y041873D01*
X002344Y041920D01*
X002334Y041968D01*
X002328Y042017D01*
X002326Y042066D01*
D11*
X026982Y041818D02*
X027409Y041818D01*
X027195Y041818D02*
X027195Y041177D01*
X027195Y040768D02*
X027409Y040554D01*
X027409Y040127D01*
X027626Y040127D02*
X027626Y040554D01*
X027626Y040341D02*
X027840Y040554D01*
X027946Y040554D01*
X028163Y040554D02*
X028270Y040554D01*
X028377Y040447D01*
X028484Y040554D01*
X028590Y040447D01*
X028590Y040127D01*
X028377Y040127D02*
X028377Y040447D01*
X028163Y040554D02*
X028163Y040127D01*
X027409Y040447D02*
X026982Y040447D01*
X026982Y040554D02*
X026982Y040127D01*
X026982Y040554D02*
X027195Y040768D01*
X027626Y041177D02*
X027840Y041177D01*
X027733Y041177D02*
X027733Y041604D01*
X027626Y041604D01*
X027733Y041818D02*
X027733Y041924D01*
X028056Y041604D02*
X028163Y041604D01*
X028269Y041497D01*
X028376Y041604D01*
X028483Y041497D01*
X028483Y041177D01*
X028269Y041177D02*
X028269Y041497D01*
X028056Y041604D02*
X028056Y041177D01*
X028700Y041284D02*
X028700Y041497D01*
X028807Y041604D01*
X029021Y041604D01*
X029127Y041497D01*
X029127Y041391D01*
X028700Y041391D01*
X028700Y041284D02*
X028807Y041177D01*
X029021Y041177D01*
X028915Y040874D02*
X028915Y040768D01*
X028915Y040554D02*
X028915Y040127D01*
X029021Y040127D02*
X028808Y040127D01*
X028808Y040554D02*
X028915Y040554D01*
X029238Y040554D02*
X029558Y040554D01*
X029665Y040447D01*
X029665Y040127D01*
X029238Y040127D02*
X029238Y040554D01*
X029990Y041177D02*
X029990Y041604D01*
X030203Y041818D01*
X030417Y041604D01*
X030417Y041177D01*
X030634Y041177D02*
X030634Y041604D01*
X030634Y041391D02*
X030848Y041604D01*
X030954Y041604D01*
X031171Y041497D02*
X031171Y041284D01*
X031278Y041177D01*
X031598Y041177D01*
X031598Y041604D02*
X031278Y041604D01*
X031171Y041497D01*
X030417Y041497D02*
X029990Y041497D01*
X030633Y040768D02*
X030847Y040768D01*
X030954Y040661D01*
X030954Y040234D01*
X030847Y040127D01*
X030633Y040127D01*
X030527Y040234D01*
X030527Y040661D01*
X030633Y040768D01*
X031171Y040447D02*
X031171Y040234D01*
X031278Y040127D01*
X031491Y040127D01*
X031598Y040234D01*
X031598Y040447D01*
X031491Y040554D01*
X031278Y040554D01*
X031171Y040447D01*
X031816Y040554D02*
X032136Y040554D01*
X032243Y040447D01*
X032243Y040127D01*
X032460Y040127D02*
X032460Y040768D01*
X032781Y040554D02*
X032460Y040341D01*
X032781Y040127D01*
X032997Y039914D02*
X033211Y040127D01*
X033104Y040127D01*
X033104Y040234D01*
X033211Y040234D01*
X033211Y040127D01*
X034072Y040127D02*
X034072Y040768D01*
X034285Y040554D01*
X034499Y040768D01*
X034499Y040127D01*
X034716Y040234D02*
X034823Y040341D01*
X035143Y040341D01*
X035143Y040447D02*
X035143Y040127D01*
X034823Y040127D01*
X034716Y040234D01*
X034823Y040554D02*
X035037Y040554D01*
X035143Y040447D01*
X035361Y040554D02*
X035361Y040234D01*
X035468Y040127D01*
X035788Y040127D01*
X035788Y040020D02*
X035681Y039914D01*
X035574Y039914D01*
X035788Y040020D02*
X035788Y040554D01*
X036650Y040661D02*
X036757Y040768D01*
X036970Y040768D01*
X037077Y040661D01*
X037077Y040554D01*
X036650Y040127D01*
X037077Y040127D01*
X037294Y040234D02*
X037721Y040661D01*
X037721Y040234D01*
X037615Y040127D01*
X037401Y040127D01*
X037294Y040234D01*
X037294Y040661D01*
X037401Y040768D01*
X037615Y040768D01*
X037721Y040661D01*
X037939Y040554D02*
X038153Y040768D01*
X038153Y040127D01*
X038366Y040127D02*
X037939Y040127D01*
X038584Y040447D02*
X039011Y040447D01*
X038904Y040127D02*
X038904Y040768D01*
X038584Y040447D01*
X031816Y040554D02*
X031816Y040127D01*
X028393Y011523D02*
X028393Y011222D01*
X028393Y011523D02*
X028060Y011523D01*
X028393Y010714D02*
X028393Y010403D01*
X028060Y010403D01*
X006159Y010342D02*
X005826Y010342D01*
X005826Y010031D01*
X005826Y009523D02*
X005826Y009222D01*
X006159Y009222D01*
X006159Y008767D02*
X005826Y008767D01*
X005826Y008456D01*
X005826Y007948D02*
X005826Y007647D01*
X006159Y007647D01*
D12*
X005283Y007628D02*
X005186Y007532D01*
X005235Y007628D02*
X005283Y007580D01*
X005283Y007483D01*
X005235Y007435D01*
X005041Y007435D01*
X004993Y007483D01*
X004993Y007580D01*
X005041Y007628D01*
X005235Y007628D01*
X005235Y007730D02*
X005283Y007730D01*
X005235Y007730D02*
X005041Y007923D01*
X004993Y007923D01*
X004993Y007730D01*
X005041Y009010D02*
X004993Y009058D01*
X004993Y009155D01*
X005041Y009203D01*
X005235Y009203D01*
X005283Y009155D01*
X005283Y009058D01*
X005235Y009010D01*
X005041Y009010D01*
X005186Y009106D02*
X005283Y009203D01*
X005235Y009304D02*
X005283Y009353D01*
X005283Y009450D01*
X005235Y009498D01*
X005186Y009498D01*
X005138Y009450D01*
X005138Y009304D01*
X005235Y009304D01*
X005138Y009304D02*
X005041Y009401D01*
X004993Y009498D01*
X006004Y009674D02*
X006004Y009964D01*
X006149Y009964D01*
X006197Y009916D01*
X006197Y009819D01*
X006149Y009771D01*
X006004Y009771D01*
X006101Y009771D02*
X006197Y009674D01*
X006299Y009722D02*
X006347Y009674D01*
X006444Y009674D01*
X006492Y009722D01*
X006492Y009771D01*
X006444Y009819D01*
X006395Y009819D01*
X006444Y009819D02*
X006492Y009868D01*
X006492Y009916D01*
X006444Y009964D01*
X006347Y009964D01*
X006299Y009916D01*
X006593Y009916D02*
X006642Y009964D01*
X006738Y009964D01*
X006787Y009916D01*
X006787Y009868D01*
X006593Y009674D01*
X006787Y009674D01*
X006642Y009571D02*
X006642Y009280D01*
X006642Y009377D02*
X006787Y009474D01*
X006642Y009377D02*
X006787Y009280D01*
X006541Y009329D02*
X006541Y009522D01*
X006348Y009329D01*
X006396Y009280D01*
X006493Y009280D01*
X006541Y009329D01*
X006541Y009522D02*
X006493Y009571D01*
X006396Y009571D01*
X006348Y009522D01*
X006348Y009329D01*
X006247Y009280D02*
X006053Y009280D01*
X006150Y009280D02*
X006150Y009571D01*
X006053Y009474D01*
X006053Y010265D02*
X006247Y010265D01*
X006150Y010265D02*
X006150Y010555D01*
X006053Y010458D01*
X006004Y010658D02*
X006004Y010949D01*
X006149Y010949D01*
X006197Y010900D01*
X006197Y010803D01*
X006149Y010755D01*
X006004Y010755D01*
X005999Y010707D02*
X005999Y010803D01*
X005903Y010803D01*
X005999Y010707D02*
X005951Y010658D01*
X005854Y010658D01*
X005806Y010707D01*
X005806Y010900D01*
X005854Y010949D01*
X005951Y010949D01*
X005999Y010900D01*
X006101Y010755D02*
X006197Y010658D01*
X006299Y010707D02*
X006347Y010658D01*
X006444Y010658D01*
X006492Y010707D01*
X006492Y010755D01*
X006444Y010803D01*
X006395Y010803D01*
X006444Y010803D02*
X006492Y010852D01*
X006492Y010900D01*
X006444Y010949D01*
X006347Y010949D01*
X006299Y010900D01*
X006593Y010900D02*
X006642Y010949D01*
X006738Y010949D01*
X006787Y010900D01*
X006593Y010707D01*
X006642Y010658D01*
X006738Y010658D01*
X006787Y010707D01*
X006787Y010900D01*
X006593Y010900D02*
X006593Y010707D01*
X006593Y010555D02*
X006593Y010410D01*
X006690Y010458D01*
X006738Y010458D01*
X006787Y010410D01*
X006787Y010313D01*
X006738Y010265D01*
X006642Y010265D01*
X006593Y010313D01*
X006493Y010265D02*
X006348Y010361D01*
X006493Y010458D01*
X006593Y010555D02*
X006787Y010555D01*
X006348Y010555D02*
X006348Y010265D01*
X005705Y010707D02*
X005705Y010900D01*
X005656Y010949D01*
X005560Y010949D01*
X005511Y010900D01*
X005511Y010707D01*
X005560Y010658D01*
X005656Y010658D01*
X005705Y010707D01*
X005410Y010658D02*
X005313Y010755D01*
X005362Y010755D02*
X005217Y010755D01*
X005217Y010658D02*
X005217Y010949D01*
X005362Y010949D01*
X005410Y010900D01*
X005410Y010803D01*
X005362Y010755D01*
X005115Y010803D02*
X005067Y010755D01*
X004922Y010755D01*
X004922Y010658D02*
X004922Y010949D01*
X005067Y010949D01*
X005115Y010900D01*
X005115Y010803D01*
X001591Y011052D02*
X001446Y011149D01*
X001591Y011245D01*
X001446Y011342D02*
X001446Y011052D01*
X001344Y011100D02*
X001344Y011294D01*
X001151Y011100D01*
X001199Y011052D01*
X001296Y011052D01*
X001344Y011100D01*
X001151Y011100D02*
X001151Y011294D01*
X001199Y011342D01*
X001296Y011342D01*
X001344Y011294D01*
X001295Y011446D02*
X001102Y011446D01*
X001295Y011639D01*
X001295Y011688D01*
X001247Y011736D01*
X001150Y011736D01*
X001102Y011688D01*
X001001Y011688D02*
X001001Y011591D01*
X000952Y011542D01*
X000807Y011542D01*
X000807Y011446D02*
X000807Y011736D01*
X000952Y011736D01*
X001001Y011688D01*
X000904Y011542D02*
X001001Y011446D01*
X000953Y011342D02*
X000953Y011052D01*
X000856Y011052D02*
X001050Y011052D01*
X000856Y011245D02*
X000953Y011342D01*
X001396Y011494D02*
X001445Y011446D01*
X001542Y011446D01*
X001590Y011494D01*
X001590Y011542D01*
X001542Y011591D01*
X001493Y011591D01*
X001542Y011591D02*
X001590Y011639D01*
X001590Y011688D01*
X001542Y011736D01*
X001445Y011736D01*
X001396Y011688D01*
X001446Y012233D02*
X001446Y012523D01*
X001344Y012475D02*
X001151Y012281D01*
X001199Y012233D01*
X001296Y012233D01*
X001344Y012281D01*
X001344Y012475D01*
X001296Y012523D01*
X001199Y012523D01*
X001151Y012475D01*
X001151Y012281D01*
X001050Y012233D02*
X000856Y012233D01*
X000953Y012233D02*
X000953Y012523D01*
X000856Y012427D01*
X000807Y012627D02*
X000807Y012917D01*
X000952Y012917D01*
X001001Y012869D01*
X001001Y012772D01*
X000952Y012724D01*
X000807Y012724D01*
X000904Y012724D02*
X001001Y012627D01*
X001102Y012675D02*
X001150Y012627D01*
X001247Y012627D01*
X001295Y012675D01*
X001295Y012724D01*
X001247Y012772D01*
X001199Y012772D01*
X001247Y012772D02*
X001295Y012820D01*
X001295Y012869D01*
X001247Y012917D01*
X001150Y012917D01*
X001102Y012869D01*
X001396Y012820D02*
X001493Y012917D01*
X001493Y012627D01*
X001396Y012627D02*
X001590Y012627D01*
X001591Y012427D02*
X001446Y012330D01*
X001591Y012233D01*
X001591Y013217D02*
X001446Y013314D01*
X001591Y013411D01*
X001446Y013508D02*
X001446Y013217D01*
X001344Y013266D02*
X001296Y013217D01*
X001199Y013217D01*
X001151Y013266D01*
X001344Y013459D01*
X001344Y013266D01*
X001151Y013266D02*
X001151Y013459D01*
X001199Y013508D01*
X001296Y013508D01*
X001344Y013459D01*
X001247Y013611D02*
X001150Y013611D01*
X001102Y013659D01*
X001001Y013611D02*
X000904Y013708D01*
X000952Y013708D02*
X000807Y013708D01*
X000807Y013611D02*
X000807Y013901D01*
X000952Y013901D01*
X001001Y013853D01*
X001001Y013756D01*
X000952Y013708D01*
X000953Y013508D02*
X000953Y013217D01*
X000856Y013217D02*
X001050Y013217D01*
X000856Y013411D02*
X000953Y013508D01*
X001247Y013611D02*
X001295Y013659D01*
X001295Y013708D01*
X001247Y013756D01*
X001199Y013756D01*
X001247Y013756D02*
X001295Y013805D01*
X001295Y013853D01*
X001247Y013901D01*
X001150Y013901D01*
X001102Y013853D01*
X001396Y013756D02*
X001542Y013756D01*
X001590Y013708D01*
X001590Y013659D01*
X001542Y013611D01*
X001445Y013611D01*
X001396Y013659D01*
X001396Y013756D01*
X001493Y013853D01*
X001590Y013901D01*
X001591Y014202D02*
X001446Y014298D01*
X001591Y014395D01*
X001446Y014492D02*
X001446Y014202D01*
X001344Y014250D02*
X001344Y014443D01*
X001151Y014250D01*
X001199Y014202D01*
X001296Y014202D01*
X001344Y014250D01*
X001151Y014250D02*
X001151Y014443D01*
X001199Y014492D01*
X001296Y014492D01*
X001344Y014443D01*
X001247Y014595D02*
X001247Y014886D01*
X001102Y014740D01*
X001295Y014740D01*
X001396Y014644D02*
X001445Y014595D01*
X001542Y014595D01*
X001590Y014644D01*
X001590Y014692D01*
X001542Y014740D01*
X001493Y014740D01*
X001542Y014740D02*
X001590Y014789D01*
X001590Y014837D01*
X001542Y014886D01*
X001445Y014886D01*
X001396Y014837D01*
X001001Y014837D02*
X001001Y014740D01*
X000952Y014692D01*
X000807Y014692D01*
X000807Y014595D02*
X000807Y014886D01*
X000952Y014886D01*
X001001Y014837D01*
X000904Y014692D02*
X001001Y014595D01*
X000953Y014492D02*
X000953Y014202D01*
X000856Y014202D02*
X001050Y014202D01*
X000856Y014395D02*
X000953Y014492D01*
X008463Y008858D02*
X008511Y008906D01*
X008608Y008906D01*
X008656Y008858D01*
X008656Y008810D01*
X008608Y008761D01*
X008656Y008713D01*
X008656Y008664D01*
X008608Y008616D01*
X008511Y008616D01*
X008463Y008664D01*
X008559Y008761D02*
X008608Y008761D01*
X008757Y008761D02*
X008902Y008761D01*
X008951Y008713D01*
X008951Y008664D01*
X008902Y008616D01*
X008806Y008616D01*
X008757Y008664D01*
X008757Y008761D01*
X008854Y008858D01*
X008951Y008906D01*
X009052Y008906D02*
X009052Y008616D01*
X009101Y008677D02*
X009053Y008725D01*
X009053Y008822D01*
X009101Y008870D01*
X009295Y008677D01*
X009343Y008725D01*
X009343Y008822D01*
X009295Y008870D01*
X009101Y008870D01*
X009101Y008972D02*
X009053Y009020D01*
X009053Y009117D01*
X009101Y009165D01*
X009295Y008972D01*
X009343Y009020D01*
X009343Y009117D01*
X009295Y009165D01*
X009101Y009165D01*
X009150Y009266D02*
X009150Y009411D01*
X009198Y009460D01*
X009343Y009460D01*
X009447Y009363D02*
X009737Y009363D01*
X009737Y009266D02*
X009737Y009460D01*
X009543Y009266D02*
X009447Y009363D01*
X009343Y009266D02*
X009150Y009266D01*
X009101Y008972D02*
X009295Y008972D01*
X009447Y009068D02*
X009543Y008972D01*
X009495Y008870D02*
X009447Y008822D01*
X009447Y008725D01*
X009495Y008677D01*
X009689Y008677D01*
X009737Y008725D01*
X009737Y008822D01*
X009689Y008870D01*
X009737Y008972D02*
X009737Y009165D01*
X009737Y009068D02*
X009447Y009068D01*
X009197Y008810D02*
X009052Y008713D01*
X009197Y008616D01*
X009197Y008513D02*
X009246Y008464D01*
X009246Y008416D01*
X009197Y008367D01*
X009246Y008319D01*
X009246Y008271D01*
X009197Y008222D01*
X009100Y008222D01*
X009052Y008271D01*
X008951Y008271D02*
X008902Y008222D01*
X008806Y008222D01*
X008757Y008271D01*
X008656Y008222D02*
X008559Y008319D01*
X008608Y008319D02*
X008463Y008319D01*
X008463Y008222D02*
X008463Y008513D01*
X008608Y008513D01*
X008656Y008464D01*
X008656Y008367D01*
X008608Y008319D01*
X008757Y008464D02*
X008806Y008513D01*
X008902Y008513D01*
X008951Y008464D01*
X008951Y008416D01*
X008902Y008367D01*
X008951Y008319D01*
X008951Y008271D01*
X008902Y008367D02*
X008854Y008367D01*
X009052Y008464D02*
X009100Y008513D01*
X009197Y008513D01*
X009150Y008382D02*
X009053Y008479D01*
X009343Y008479D01*
X009343Y008382D02*
X009343Y008576D01*
X009295Y008677D02*
X009101Y008677D01*
X009149Y008367D02*
X009197Y008367D01*
X009052Y007922D02*
X009052Y007632D01*
X009052Y007729D02*
X009197Y007825D01*
X009052Y007729D02*
X009197Y007632D01*
X009197Y007528D02*
X009052Y007383D01*
X009246Y007383D01*
X009197Y007238D02*
X009197Y007528D01*
X008951Y007480D02*
X008951Y007432D01*
X008902Y007383D01*
X008951Y007335D01*
X008951Y007286D01*
X008902Y007238D01*
X008806Y007238D01*
X008757Y007286D01*
X008656Y007238D02*
X008559Y007335D01*
X008608Y007335D02*
X008463Y007335D01*
X008463Y007238D02*
X008463Y007528D01*
X008608Y007528D01*
X008656Y007480D01*
X008656Y007383D01*
X008608Y007335D01*
X008757Y007480D02*
X008806Y007528D01*
X008902Y007528D01*
X008951Y007480D01*
X008902Y007383D02*
X008854Y007383D01*
X008757Y007632D02*
X008757Y007680D01*
X008951Y007874D01*
X008951Y007922D01*
X008757Y007922D01*
X008608Y007922D02*
X008608Y007632D01*
X008656Y007777D02*
X008463Y007777D01*
X008608Y007922D01*
X012085Y011175D02*
X012085Y011465D01*
X012230Y011465D01*
X012278Y011417D01*
X012278Y011320D01*
X012230Y011272D01*
X012085Y011272D01*
X012182Y011272D02*
X012278Y011175D01*
X012379Y011175D02*
X012573Y011369D01*
X012573Y011417D01*
X012525Y011465D01*
X012428Y011465D01*
X012379Y011417D01*
X012394Y011418D02*
X012443Y011466D01*
X012491Y011466D01*
X012540Y011418D01*
X012540Y011321D01*
X012491Y011273D01*
X012443Y011273D01*
X012394Y011321D01*
X012394Y011418D01*
X012540Y011418D02*
X012588Y011466D01*
X012636Y011466D01*
X012685Y011418D01*
X012685Y011321D01*
X012636Y011273D01*
X012588Y011273D01*
X012540Y011321D01*
X012674Y011369D02*
X012722Y011320D01*
X012868Y011320D01*
X012837Y011273D02*
X012788Y011321D01*
X012788Y011418D01*
X012837Y011466D01*
X013030Y011273D01*
X013078Y011321D01*
X013078Y011418D01*
X013030Y011466D01*
X012837Y011466D01*
X012819Y011465D02*
X012722Y011465D01*
X012674Y011417D01*
X012674Y011369D01*
X012674Y011223D02*
X012722Y011175D01*
X012819Y011175D01*
X012868Y011223D01*
X012868Y011417D01*
X012819Y011465D01*
X012885Y011568D02*
X013030Y011568D01*
X013078Y011616D01*
X013078Y011761D01*
X012885Y011761D01*
X012837Y011273D02*
X013030Y011273D01*
X013078Y011172D02*
X013078Y010978D01*
X013078Y011075D02*
X012788Y011075D01*
X012885Y010978D01*
X012685Y011027D02*
X012685Y011123D01*
X012636Y011172D01*
X012573Y011175D02*
X012379Y011175D01*
X012394Y011123D02*
X012394Y011027D01*
X012443Y010978D01*
X012636Y010978D01*
X012685Y011027D01*
X012443Y011172D02*
X012394Y011123D01*
X012230Y011569D02*
X012133Y011569D01*
X012085Y011617D01*
X012278Y011811D01*
X012278Y011617D01*
X012230Y011569D01*
X012085Y011617D02*
X012085Y011811D01*
X012133Y011859D01*
X012230Y011859D01*
X012278Y011811D01*
X013379Y011713D02*
X013379Y011616D01*
X013427Y011568D01*
X013621Y011568D01*
X013427Y011761D01*
X013621Y011761D01*
X013669Y011713D01*
X013669Y011616D01*
X013621Y011568D01*
X013669Y011466D02*
X013669Y011273D01*
X013475Y011466D01*
X013427Y011466D01*
X013379Y011418D01*
X013379Y011321D01*
X013427Y011273D01*
X013427Y011172D02*
X013379Y011123D01*
X013379Y011027D01*
X013427Y010978D01*
X013621Y010978D01*
X013669Y011027D01*
X013669Y011123D01*
X013621Y011172D01*
X013772Y011075D02*
X014063Y011075D01*
X014063Y010978D02*
X014063Y011172D01*
X014014Y011273D02*
X013821Y011466D01*
X014014Y011466D01*
X014063Y011418D01*
X014063Y011321D01*
X014014Y011273D01*
X013821Y011273D01*
X013772Y011321D01*
X013772Y011418D01*
X013821Y011466D01*
X013869Y011568D02*
X013869Y011713D01*
X013918Y011761D01*
X014063Y011761D01*
X014063Y011568D02*
X013869Y011568D01*
X013427Y011761D02*
X013379Y011713D01*
X013772Y011075D02*
X013869Y010978D01*
X014858Y009302D02*
X015052Y009302D01*
X015052Y009157D01*
X015004Y009109D01*
X014858Y009109D01*
X014810Y009008D02*
X015004Y008814D01*
X015052Y008863D01*
X015052Y008959D01*
X015004Y009008D01*
X014810Y009008D01*
X014762Y008959D01*
X014762Y008863D01*
X014810Y008814D01*
X015004Y008814D01*
X015004Y008713D02*
X015052Y008665D01*
X015052Y008568D01*
X015004Y008519D01*
X014810Y008713D01*
X015004Y008713D01*
X015004Y008519D02*
X014810Y008519D01*
X014762Y008568D01*
X014762Y008665D01*
X014810Y008713D01*
X015052Y008418D02*
X015052Y008225D01*
X015052Y008322D02*
X014762Y008322D01*
X014858Y008225D01*
X016410Y008222D02*
X016410Y008319D01*
X016410Y008271D02*
X016700Y008271D01*
X016700Y008319D02*
X016700Y008222D01*
X016652Y008419D02*
X016700Y008467D01*
X016700Y008564D01*
X016652Y008612D01*
X016730Y008568D02*
X016779Y008519D01*
X016972Y008519D01*
X017020Y008568D01*
X017020Y008665D01*
X016972Y008713D01*
X017020Y008814D02*
X016827Y009008D01*
X016779Y009008D01*
X016730Y008959D01*
X016730Y008863D01*
X016779Y008814D01*
X016700Y008810D02*
X016410Y008810D01*
X016507Y008713D01*
X016459Y008612D02*
X016410Y008564D01*
X016410Y008467D01*
X016459Y008419D01*
X016652Y008419D01*
X016730Y008568D02*
X016730Y008665D01*
X016779Y008713D01*
X016700Y008713D02*
X016700Y008907D01*
X016730Y009109D02*
X016875Y009109D01*
X016827Y009206D01*
X016827Y009254D01*
X016875Y009302D01*
X016972Y009302D01*
X017020Y009254D01*
X017020Y009157D01*
X016972Y009109D01*
X017020Y009008D02*
X017020Y008814D01*
X016730Y009109D02*
X016730Y009302D01*
X020764Y007727D02*
X020957Y007727D01*
X020957Y007582D01*
X020909Y007534D01*
X020764Y007534D01*
X020716Y007433D02*
X020909Y007239D01*
X020957Y007288D01*
X020957Y007384D01*
X020909Y007433D01*
X020716Y007433D01*
X020667Y007384D01*
X020667Y007288D01*
X020716Y007239D01*
X020909Y007239D01*
X020957Y007138D02*
X020957Y006945D01*
X020957Y007041D02*
X020667Y007041D01*
X020764Y006945D01*
X021061Y006993D02*
X021109Y006945D01*
X021303Y006945D01*
X021351Y006993D01*
X021351Y007090D01*
X021303Y007138D01*
X021351Y007239D02*
X021351Y007433D01*
X021351Y007336D02*
X021061Y007336D01*
X021158Y007239D01*
X021109Y007138D02*
X021061Y007090D01*
X021061Y006993D01*
X021061Y007534D02*
X021061Y007727D01*
X021109Y007727D01*
X021303Y007534D01*
X021351Y007534D01*
X021651Y007384D02*
X021700Y007433D01*
X021893Y007239D01*
X021942Y007288D01*
X021942Y007384D01*
X021893Y007433D01*
X021700Y007433D01*
X021651Y007384D02*
X021651Y007288D01*
X021700Y007239D01*
X021893Y007239D01*
X021942Y007138D02*
X021942Y006945D01*
X021942Y007041D02*
X021651Y007041D01*
X021748Y006945D01*
X022045Y006993D02*
X022094Y006945D01*
X022287Y006945D01*
X022335Y006993D01*
X022335Y007090D01*
X022287Y007138D01*
X022335Y007239D02*
X022142Y007433D01*
X022094Y007433D01*
X022045Y007384D01*
X022045Y007288D01*
X022094Y007239D01*
X022094Y007138D02*
X022045Y007090D01*
X022045Y006993D01*
X022335Y007239D02*
X022335Y007433D01*
X022287Y007534D02*
X022335Y007582D01*
X022335Y007679D01*
X022287Y007727D01*
X022239Y007727D01*
X022190Y007679D01*
X022190Y007631D01*
X022190Y007679D02*
X022142Y007727D01*
X022094Y007727D01*
X022045Y007679D01*
X022045Y007582D01*
X022094Y007534D01*
X021942Y007582D02*
X021942Y007727D01*
X021748Y007727D01*
X021748Y007534D02*
X021893Y007534D01*
X021942Y007582D01*
X022636Y007384D02*
X022684Y007433D01*
X022878Y007239D01*
X022926Y007288D01*
X022926Y007384D01*
X022878Y007433D01*
X022684Y007433D01*
X022636Y007384D02*
X022636Y007288D01*
X022684Y007239D01*
X022878Y007239D01*
X022878Y007138D02*
X022926Y007090D01*
X022926Y006993D01*
X022878Y006945D01*
X022684Y007138D01*
X022878Y007138D01*
X023029Y007090D02*
X023029Y006993D01*
X023078Y006945D01*
X023271Y006945D01*
X023320Y006993D01*
X023320Y007090D01*
X023271Y007138D01*
X023320Y007239D02*
X023320Y007433D01*
X023320Y007336D02*
X023029Y007336D01*
X023126Y007239D01*
X023078Y007138D02*
X023029Y007090D01*
X022878Y006945D02*
X022684Y006945D01*
X022636Y006993D01*
X022636Y007090D01*
X022684Y007138D01*
X022926Y006844D02*
X022926Y006650D01*
X022926Y006747D02*
X022636Y006747D01*
X022732Y006650D01*
X022732Y007534D02*
X022732Y007679D01*
X022781Y007727D01*
X022926Y007727D01*
X023029Y007679D02*
X023029Y007582D01*
X023078Y007534D01*
X023126Y007534D01*
X023175Y007582D01*
X023175Y007679D01*
X023223Y007727D01*
X023271Y007727D01*
X023320Y007679D01*
X023320Y007582D01*
X023271Y007534D01*
X023223Y007534D01*
X023175Y007582D01*
X023175Y007679D02*
X023126Y007727D01*
X023078Y007727D01*
X023029Y007679D01*
X022926Y007534D02*
X022732Y007534D01*
X023126Y008225D02*
X023029Y008322D01*
X023320Y008322D01*
X023320Y008418D02*
X023320Y008225D01*
X023271Y008519D02*
X023078Y008713D01*
X023271Y008713D01*
X023320Y008665D01*
X023320Y008568D01*
X023271Y008519D01*
X023078Y008519D01*
X023029Y008568D01*
X023029Y008665D01*
X023078Y008713D01*
X023078Y008814D02*
X023029Y008863D01*
X023029Y008959D01*
X023078Y009008D01*
X023271Y008814D01*
X023320Y008863D01*
X023320Y008959D01*
X023271Y009008D01*
X023078Y009008D01*
X023126Y009109D02*
X023271Y009109D01*
X023320Y009157D01*
X023320Y009302D01*
X023126Y009302D01*
X023078Y008814D02*
X023271Y008814D01*
X024998Y008863D02*
X025046Y008814D01*
X024998Y008863D02*
X024998Y008959D01*
X025046Y009008D01*
X025095Y009008D01*
X025288Y008814D01*
X025288Y009008D01*
X025143Y009109D02*
X025143Y009302D01*
X024998Y009254D02*
X025143Y009109D01*
X025288Y009254D02*
X024998Y009254D01*
X025046Y008713D02*
X024998Y008665D01*
X024998Y008568D01*
X025046Y008519D01*
X025240Y008519D01*
X025288Y008568D01*
X025288Y008665D01*
X025240Y008713D01*
X028935Y011225D02*
X028935Y011321D01*
X028983Y011370D01*
X029177Y011370D01*
X029225Y011321D01*
X029225Y011225D01*
X029177Y011176D01*
X028983Y011176D01*
X028935Y011225D01*
X029128Y011273D02*
X029225Y011370D01*
X029225Y011471D02*
X029225Y011665D01*
X029225Y011568D02*
X028935Y011568D01*
X029032Y011471D01*
X034840Y008910D02*
X034840Y008813D01*
X034840Y008862D02*
X035131Y008862D01*
X035131Y008910D02*
X035131Y008813D01*
X035082Y008712D02*
X034889Y008712D01*
X034840Y008664D01*
X034840Y008519D01*
X035131Y008519D01*
X035131Y008664D01*
X035082Y008712D01*
X034840Y008418D02*
X034840Y008224D01*
X034840Y008321D02*
X035131Y008321D01*
X034986Y008026D02*
X034986Y007929D01*
X035131Y007929D02*
X034840Y007929D01*
X034840Y008123D01*
X022675Y020413D02*
X022538Y020550D01*
X022812Y020550D01*
X022846Y020584D01*
X022846Y020652D01*
X022778Y020721D01*
X022709Y020721D01*
X022638Y020792D02*
X022569Y020724D01*
X022501Y020724D01*
X022398Y020826D01*
X022330Y020758D02*
X022535Y020963D01*
X022638Y020861D01*
X022638Y020792D01*
X022467Y020758D02*
X022467Y020621D01*
X023057Y021212D02*
X023057Y021349D01*
X023092Y021314D02*
X022989Y021417D01*
X022921Y021349D02*
X023126Y021554D01*
X023228Y021451D01*
X023228Y021383D01*
X023160Y021314D01*
X023092Y021314D01*
X023266Y021277D02*
X023403Y021277D01*
X023197Y021072D01*
X023129Y021140D02*
X023266Y021003D01*
X023856Y021594D02*
X023719Y021731D01*
X023788Y021662D02*
X023993Y021868D01*
X023856Y021868D01*
X023819Y021973D02*
X023751Y021905D01*
X023682Y021905D01*
X023580Y022008D01*
X023648Y021939D02*
X023648Y021802D01*
X023511Y021939D02*
X023716Y022144D01*
X023819Y022042D01*
X023819Y021973D01*
X024099Y021693D02*
X024167Y021693D01*
X024236Y021625D01*
X024236Y021557D01*
X024201Y021522D01*
X023928Y021522D01*
X024065Y021386D01*
X024289Y022205D02*
X024426Y022342D01*
X024357Y022274D02*
X024152Y022479D01*
X024152Y022342D01*
X024326Y022585D02*
X024326Y022653D01*
X024395Y022722D01*
X024463Y022722D01*
X024463Y022448D01*
X024531Y022448D01*
X024600Y022516D01*
X024600Y022585D01*
X024463Y022722D01*
X024535Y022793D02*
X024535Y022862D01*
X024603Y022930D01*
X024671Y022930D01*
X024671Y022656D01*
X024740Y022656D01*
X024808Y022725D01*
X024808Y022793D01*
X024671Y022930D01*
X024777Y022967D02*
X024914Y022831D01*
X024987Y022757D02*
X025090Y022655D01*
X025124Y022757D01*
X025158Y022792D01*
X025227Y022792D01*
X025295Y022723D01*
X025295Y022655D01*
X025227Y022586D01*
X025158Y022586D01*
X025087Y022515D02*
X025087Y022446D01*
X025018Y022378D01*
X024950Y022378D01*
X024813Y022515D01*
X024813Y022583D01*
X024881Y022652D01*
X024950Y022652D01*
X024987Y022757D02*
X025124Y022894D01*
X025051Y022967D02*
X024948Y023070D01*
X024880Y023070D01*
X024777Y022967D01*
X024535Y022793D02*
X024671Y022656D01*
X024463Y022448D02*
X024326Y022585D01*
X025251Y023405D02*
X025388Y023268D01*
X025456Y023268D01*
X025524Y023337D01*
X025524Y023405D01*
X025630Y023443D02*
X025630Y023716D01*
X025596Y023750D01*
X025528Y023750D01*
X025459Y023682D01*
X025459Y023614D01*
X025388Y023542D02*
X025319Y023542D01*
X025251Y023474D01*
X025251Y023405D01*
X025563Y023229D02*
X025769Y023024D01*
X025700Y022956D02*
X025837Y023093D01*
X025874Y023198D02*
X025874Y023472D01*
X026011Y023335D01*
X026011Y023267D01*
X025943Y023198D01*
X025874Y023198D01*
X025738Y023335D01*
X025738Y023404D01*
X025806Y023472D01*
X025874Y023472D01*
X025980Y023509D02*
X026083Y023407D01*
X026151Y023407D01*
X026254Y023509D01*
X026117Y023646D01*
X025839Y023651D02*
X025804Y023685D01*
X025804Y023959D01*
X025770Y023993D01*
X025633Y023856D01*
X025767Y023579D02*
X025630Y023443D01*
X025563Y023229D02*
X025563Y023093D01*
X022418Y026511D02*
X022213Y026716D01*
X022316Y026819D01*
X022384Y026819D01*
X022452Y026751D01*
X022452Y026682D01*
X022350Y026580D01*
X022418Y026648D02*
X022555Y026648D01*
X022627Y026719D02*
X022763Y026856D01*
X022695Y026788D02*
X022490Y026993D01*
X022490Y026856D01*
X022664Y027099D02*
X022664Y027167D01*
X022732Y027236D01*
X022801Y027236D01*
X022835Y027201D01*
X022835Y027133D01*
X022903Y027133D01*
X022938Y027099D01*
X022938Y027030D01*
X022869Y026962D01*
X022801Y026962D01*
X022801Y027099D02*
X022835Y027133D01*
X022230Y027738D02*
X022162Y027669D01*
X022094Y027669D01*
X022094Y027943D01*
X022230Y027806D01*
X022230Y027738D01*
X022094Y027669D02*
X021957Y027806D01*
X021957Y027874D01*
X022025Y027943D01*
X022094Y027943D01*
X022933Y028369D02*
X023002Y028301D01*
X023070Y028301D01*
X023142Y028229D02*
X023142Y028161D01*
X023210Y028092D01*
X023278Y028092D01*
X023313Y028127D01*
X023313Y028195D01*
X023210Y028298D01*
X023142Y028229D01*
X023210Y028298D02*
X023347Y028298D01*
X023450Y028263D01*
X023488Y028371D02*
X023386Y028473D01*
X023317Y028405D02*
X023523Y028610D01*
X023625Y028508D01*
X023625Y028439D01*
X023557Y028371D01*
X023488Y028371D01*
X023349Y028579D02*
X023280Y028579D01*
X023212Y028648D01*
X023212Y028716D01*
X023246Y028750D01*
X023314Y028750D01*
X023383Y028682D01*
X023383Y028613D01*
X023349Y028579D01*
X023383Y028682D02*
X023451Y028682D01*
X023485Y028716D01*
X023485Y028784D01*
X023417Y028853D01*
X023349Y028853D01*
X023314Y028819D01*
X023314Y028750D01*
X023142Y028786D02*
X023108Y028752D01*
X023073Y028786D01*
X023108Y028820D01*
X023142Y028786D01*
X023036Y028892D02*
X023070Y028926D01*
X023070Y028994D01*
X022968Y029097D01*
X022899Y029028D01*
X022899Y028960D01*
X022968Y028892D01*
X023036Y028892D01*
X023104Y029097D02*
X022968Y029097D01*
X023104Y029097D02*
X023207Y029063D01*
X023139Y028574D02*
X023070Y028574D01*
X022933Y028438D01*
X022933Y028369D01*
X023207Y028438D02*
X023207Y028506D01*
X023139Y028574D01*
X022969Y029829D02*
X022935Y030000D01*
X023106Y029966D01*
X023072Y030137D02*
X022867Y029932D01*
X022829Y030038D02*
X022761Y030038D01*
X022692Y030106D01*
X022692Y030175D01*
X022966Y030175D01*
X022829Y030038D01*
X022692Y030175D02*
X022829Y030311D01*
X022898Y030311D01*
X022966Y030243D01*
X022966Y030175D01*
X023039Y030317D02*
X022902Y030453D01*
X022970Y030385D02*
X023176Y030590D01*
X023039Y030590D01*
X023001Y030696D02*
X022933Y030628D01*
X022865Y030628D01*
X022762Y030730D01*
X022830Y030662D02*
X022830Y030525D01*
X022724Y030485D02*
X022518Y030280D01*
X022450Y030349D02*
X022587Y030212D01*
X022587Y030485D02*
X022724Y030485D01*
X022694Y030662D02*
X022899Y030867D01*
X023001Y030764D01*
X023001Y030696D01*
X023213Y030348D02*
X023315Y030245D01*
X023315Y030177D01*
X023281Y030142D01*
X023213Y030142D01*
X023144Y030211D01*
X023144Y030279D01*
X023213Y030348D01*
X023350Y030348D01*
X023452Y030313D01*
X025049Y029571D02*
X025254Y029366D01*
X025186Y029297D02*
X025322Y029434D01*
X025360Y029540D02*
X025360Y029813D01*
X025497Y029677D01*
X025497Y029608D01*
X025428Y029540D01*
X025360Y029540D01*
X025223Y029677D01*
X025223Y029745D01*
X025291Y029813D01*
X025360Y029813D01*
X025397Y029919D02*
X025602Y029714D01*
X025534Y029782D02*
X025568Y029953D01*
X025534Y029782D02*
X025705Y029816D01*
X025812Y029778D02*
X025846Y029743D01*
X025846Y029470D01*
X025881Y029435D01*
X025809Y029364D02*
X025672Y029227D01*
X025672Y029501D01*
X025638Y029535D01*
X025570Y029535D01*
X025501Y029467D01*
X025501Y029398D01*
X025430Y029327D02*
X025498Y029258D01*
X025498Y029190D01*
X025396Y029087D01*
X025464Y029019D02*
X025259Y029224D01*
X025361Y029327D01*
X025430Y029327D01*
X025464Y029156D02*
X025601Y029156D01*
X025675Y029641D02*
X025812Y029778D01*
X025049Y029571D02*
X025049Y029434D01*
X020633Y031471D02*
X020565Y031402D01*
X020496Y031402D01*
X020394Y031505D01*
X020325Y031436D02*
X020531Y031642D01*
X020633Y031539D01*
X020633Y031471D01*
X020457Y031295D02*
X020423Y031261D01*
X020150Y031261D01*
X020115Y031227D01*
X020078Y031332D02*
X020010Y031332D01*
X019941Y031401D01*
X019941Y031469D01*
X020078Y031606D01*
X020146Y031606D01*
X020215Y031537D01*
X020215Y031469D01*
X020321Y031432D02*
X020457Y031295D01*
X020356Y031611D02*
X020288Y031611D01*
X020220Y031679D01*
X020220Y031747D01*
X020254Y031782D01*
X020322Y031782D01*
X020391Y031713D01*
X020391Y031645D01*
X020356Y031611D01*
X020391Y031713D02*
X020459Y031713D01*
X020493Y031747D01*
X020493Y031816D01*
X020425Y031884D01*
X020356Y031884D01*
X020322Y031850D01*
X020322Y031782D01*
X020150Y031817D02*
X020115Y031783D01*
X020081Y031817D01*
X020115Y031852D01*
X020150Y031817D01*
X020044Y031923D02*
X020078Y031957D01*
X020078Y032026D01*
X019975Y032128D01*
X019907Y032060D01*
X019907Y031992D01*
X019975Y031923D01*
X020044Y031923D01*
X020112Y032128D02*
X020215Y032094D01*
X020112Y032128D02*
X019975Y032128D01*
X016095Y028930D02*
X016027Y028999D01*
X015958Y028999D01*
X015924Y028965D01*
X015924Y028896D01*
X016027Y028794D01*
X016095Y028862D02*
X015958Y028725D01*
X015890Y028725D01*
X015822Y028794D01*
X015822Y028862D01*
X015716Y028899D02*
X015716Y029036D01*
X015750Y029002D02*
X015647Y029104D01*
X015579Y029036D02*
X015784Y029241D01*
X015887Y029139D01*
X015887Y029070D01*
X015819Y029002D01*
X015750Y029002D01*
X016095Y028930D02*
X016095Y028862D01*
X015505Y028340D02*
X015436Y028408D01*
X015368Y028408D01*
X015231Y028271D01*
X015505Y028271D01*
X015368Y028135D01*
X015299Y028135D01*
X015231Y028203D01*
X015231Y028271D01*
X015125Y028309D02*
X014989Y028446D01*
X015057Y028377D02*
X015262Y028582D01*
X015125Y028582D01*
X015020Y028620D02*
X014951Y028620D01*
X014849Y028722D01*
X014917Y028654D02*
X014917Y028517D01*
X015020Y028620D02*
X015088Y028688D01*
X015088Y028757D01*
X014985Y028859D01*
X014780Y028654D01*
X015505Y028340D02*
X015505Y028271D01*
X014423Y025348D02*
X014628Y025143D01*
X014560Y025075D02*
X014696Y025211D01*
X014423Y025211D02*
X014423Y025348D01*
X014214Y025140D02*
X014420Y024935D01*
X014488Y025003D02*
X014351Y024866D01*
X014280Y024795D02*
X014143Y024795D01*
X014177Y024829D02*
X014074Y024726D01*
X014143Y024658D02*
X013938Y024863D01*
X014040Y024966D01*
X014109Y024966D01*
X014177Y024897D01*
X014177Y024829D01*
X014214Y025003D02*
X014214Y025140D01*
X014806Y023330D02*
X014840Y023296D01*
X014840Y023022D01*
X014875Y022988D01*
X014803Y022916D02*
X014666Y022916D01*
X014700Y022951D02*
X014598Y022848D01*
X014666Y022780D02*
X014461Y022985D01*
X014564Y023087D01*
X014632Y023087D01*
X014700Y023019D01*
X014700Y022951D01*
X014669Y023193D02*
X014806Y023330D01*
X015363Y022705D02*
X015294Y022637D01*
X015294Y022568D01*
X015328Y022534D01*
X015397Y022534D01*
X015465Y022603D01*
X015534Y022603D01*
X015568Y022568D01*
X015568Y022500D01*
X015499Y022432D01*
X015431Y022432D01*
X015397Y022466D01*
X015397Y022534D01*
X015465Y022603D02*
X015465Y022671D01*
X015431Y022705D01*
X015363Y022705D01*
X015223Y022497D02*
X015291Y022429D01*
X015291Y022360D01*
X015188Y022257D01*
X015257Y022189D02*
X015052Y022394D01*
X015154Y022497D01*
X015223Y022497D01*
X015257Y022326D02*
X015394Y022326D01*
X016257Y021434D02*
X016325Y021434D01*
X016393Y021366D01*
X016393Y021297D01*
X016291Y021195D01*
X016359Y021263D02*
X016496Y021263D01*
X016533Y021369D02*
X016602Y021369D01*
X016670Y021437D01*
X016670Y021505D01*
X016636Y021540D01*
X016567Y021540D01*
X016465Y021437D01*
X016533Y021369D01*
X016465Y021437D02*
X016465Y021574D01*
X016499Y021677D01*
X016257Y021434D02*
X016154Y021331D01*
X016359Y021126D01*
X016744Y020741D02*
X016847Y020843D01*
X016915Y020843D01*
X016984Y020775D01*
X016984Y020707D01*
X016881Y020604D01*
X016950Y020672D02*
X017087Y020672D01*
X017124Y020778D02*
X017192Y020778D01*
X017261Y020847D01*
X017261Y020915D01*
X017192Y020983D01*
X017124Y020983D01*
X017090Y020949D01*
X017055Y020847D01*
X016953Y020949D01*
X017090Y021086D01*
X016744Y020741D02*
X016950Y020536D01*
X017335Y020150D02*
X017438Y020253D01*
X017506Y020253D01*
X017574Y020184D01*
X017574Y020116D01*
X017472Y020013D01*
X017540Y019945D02*
X017335Y020150D01*
X017540Y020082D02*
X017677Y020082D01*
X017646Y020256D02*
X017783Y020393D01*
X017851Y020256D02*
X017646Y020461D01*
X017646Y020256D01*
X018168Y019802D02*
X018237Y019871D01*
X018305Y019871D01*
X018339Y019836D01*
X018339Y019768D01*
X018408Y019768D01*
X018442Y019734D01*
X018442Y019665D01*
X018373Y019597D01*
X018305Y019597D01*
X018268Y019491D02*
X018131Y019491D01*
X018165Y019525D02*
X018062Y019423D01*
X018131Y019354D02*
X017926Y019560D01*
X018028Y019662D01*
X018097Y019662D01*
X018165Y019594D01*
X018165Y019525D01*
X018168Y019734D02*
X018168Y019802D01*
X018305Y019734D02*
X018339Y019768D01*
X019352Y023539D02*
X019454Y023642D01*
X019454Y023710D01*
X019352Y023813D01*
X019215Y023676D01*
X019178Y023782D02*
X019109Y023782D01*
X019041Y023850D01*
X019041Y023919D01*
X019314Y023919D01*
X019178Y023782D01*
X019314Y023919D02*
X019314Y023987D01*
X019246Y024056D01*
X019178Y024056D01*
X019041Y023919D01*
X018969Y023990D02*
X018901Y023990D01*
X018832Y024059D01*
X018832Y024127D01*
X019106Y024127D01*
X018969Y023990D01*
X018832Y024127D02*
X018969Y024264D01*
X019038Y024264D01*
X019106Y024196D01*
X019106Y024127D01*
X019179Y024269D02*
X019384Y024474D01*
X019179Y024474D01*
X019316Y024337D01*
X019039Y024477D02*
X018971Y024477D01*
X018902Y024545D01*
X018902Y024614D01*
X019039Y024751D01*
X019108Y024751D01*
X019176Y024682D01*
X019176Y024614D01*
X018863Y024438D02*
X018658Y024233D01*
X018590Y024301D02*
X018727Y024164D01*
X018727Y024438D02*
X018863Y024438D01*
X018561Y024780D02*
X018630Y024848D01*
X018630Y024916D01*
X018701Y024988D02*
X018770Y024988D01*
X018838Y025056D01*
X018838Y025125D01*
X018804Y025159D01*
X018736Y025159D01*
X018701Y025125D01*
X018736Y025159D02*
X018736Y025227D01*
X018701Y025262D01*
X018633Y025262D01*
X018565Y025193D01*
X018565Y025125D01*
X018493Y025053D02*
X018425Y025053D01*
X018356Y024985D01*
X018356Y024916D01*
X018493Y024780D01*
X018561Y024780D01*
X018283Y025058D02*
X018215Y025058D01*
X018215Y025332D01*
X018352Y025195D01*
X018352Y025126D01*
X018283Y025058D01*
X018215Y025058D02*
X018078Y025195D01*
X018078Y025263D01*
X018146Y025332D01*
X018215Y025332D01*
X018320Y025369D02*
X018423Y025472D01*
X018491Y025472D01*
X018594Y025369D01*
X018457Y025232D02*
X018320Y025369D01*
X018006Y025123D02*
X018006Y024850D01*
X018075Y024850D01*
X018143Y024918D01*
X018143Y024986D01*
X018006Y025123D01*
X017938Y025123D01*
X017870Y025055D01*
X017870Y024986D01*
X018006Y024850D01*
X017969Y024744D02*
X017832Y024607D01*
X017901Y024675D02*
X017695Y024881D01*
X017695Y024744D01*
X020054Y024576D02*
X020054Y024508D01*
X020191Y024371D01*
X020259Y024371D01*
X020328Y024439D01*
X020328Y024508D01*
X020433Y024545D02*
X020570Y024682D01*
X020502Y024613D02*
X020296Y024819D01*
X020296Y024682D01*
X020191Y024644D02*
X020122Y024644D01*
X020054Y024576D01*
X020367Y024332D02*
X020572Y024127D01*
X020640Y024195D02*
X020503Y024058D01*
X020367Y024195D02*
X020367Y024332D01*
X020541Y024438D02*
X020541Y024506D01*
X020609Y024574D01*
X020677Y024574D01*
X020677Y024301D01*
X020746Y024301D01*
X020814Y024369D01*
X020814Y024438D01*
X020677Y024574D01*
X020749Y024646D02*
X020749Y024714D01*
X020817Y024783D01*
X020886Y024783D01*
X020886Y024509D01*
X020954Y024509D01*
X021023Y024577D01*
X021023Y024646D01*
X020886Y024783D01*
X020992Y024820D02*
X021094Y024923D01*
X021163Y024923D01*
X021265Y024820D01*
X021128Y024683D02*
X020992Y024820D01*
X020749Y024646D02*
X020886Y024509D01*
X020677Y024301D02*
X020541Y024438D01*
X020213Y025539D02*
X020076Y025675D01*
X020350Y025675D01*
X020384Y025710D01*
X020384Y025778D01*
X020315Y025846D01*
X020247Y025846D01*
X020175Y025918D02*
X020175Y025986D01*
X020107Y026055D01*
X020039Y026055D01*
X019902Y025918D01*
X019902Y025849D01*
X019970Y025781D01*
X020039Y025781D01*
X020249Y026059D02*
X020180Y026128D01*
X020180Y026196D01*
X020454Y026196D01*
X020317Y026059D01*
X020249Y026059D01*
X020354Y025954D02*
X020491Y026091D01*
X020594Y025988D01*
X020594Y025920D01*
X020491Y025817D01*
X020454Y026196D02*
X020454Y026265D01*
X020385Y026333D01*
X020317Y026333D01*
X020180Y026196D01*
X020109Y026268D02*
X020245Y026405D01*
X019972Y026405D01*
X019972Y026336D01*
X020040Y026268D01*
X020109Y026268D01*
X020245Y026405D02*
X020245Y026473D01*
X020177Y026541D01*
X020109Y026541D01*
X019972Y026405D01*
X019866Y026442D02*
X019729Y026579D01*
X019798Y026510D02*
X020003Y026716D01*
X019866Y026716D01*
X010510Y013336D02*
X010559Y013287D01*
X010559Y013191D01*
X010510Y013142D01*
X010462Y013142D01*
X010414Y013191D01*
X010414Y013287D01*
X010462Y013336D01*
X010510Y013336D01*
X010414Y013287D02*
X010365Y013336D01*
X010317Y013336D01*
X010268Y013287D01*
X010268Y013191D01*
X010317Y013142D01*
X010365Y013142D01*
X010414Y013191D01*
X010365Y013041D02*
X010559Y012848D01*
X010559Y013041D01*
X010365Y013041D02*
X010317Y013041D01*
X010268Y012993D01*
X010268Y012896D01*
X010317Y012848D01*
X010317Y012747D02*
X010414Y012747D01*
X010462Y012698D01*
X010462Y012553D01*
X010559Y012553D02*
X010268Y012553D01*
X010268Y012698D01*
X010317Y012747D01*
X010165Y012698D02*
X010165Y012601D01*
X010117Y012553D01*
X009923Y012747D01*
X010117Y012747D01*
X010165Y012698D01*
X010117Y012553D02*
X009923Y012553D01*
X009875Y012601D01*
X009875Y012698D01*
X009923Y012747D01*
X010462Y012650D02*
X010559Y012747D01*
D13*
X009944Y009113D02*
X009589Y009113D01*
X009314Y008129D02*
X009314Y007302D01*
X011676Y009113D02*
X012030Y009113D01*
X012306Y008129D02*
X012306Y007302D01*
X014038Y007026D02*
X014668Y007026D01*
X014669Y007027D02*
X014685Y007032D01*
X014701Y007040D01*
X014715Y007050D01*
X014727Y007062D01*
X014737Y007077D01*
X014744Y007093D01*
X014748Y007110D01*
X014749Y007127D01*
X014747Y007145D01*
X014038Y007027D02*
X014022Y007032D01*
X014006Y007040D01*
X013992Y007050D01*
X013980Y007062D01*
X013970Y007077D01*
X013963Y007093D01*
X013959Y007110D01*
X013958Y007127D01*
X013960Y007145D01*
X013960Y007695D02*
X013958Y007713D01*
X013959Y007730D01*
X013963Y007747D01*
X013970Y007763D01*
X013980Y007778D01*
X013992Y007790D01*
X014006Y007800D01*
X014022Y007808D01*
X014038Y007813D01*
X014038Y007814D02*
X014668Y007814D01*
X014669Y007813D02*
X014685Y007808D01*
X014701Y007800D01*
X014715Y007790D01*
X014727Y007778D01*
X014737Y007763D01*
X014744Y007747D01*
X014748Y007730D01*
X014749Y007713D01*
X014747Y007695D01*
X018034Y007311D02*
X018034Y009891D01*
X019334Y009891D01*
X019334Y007311D01*
X018034Y007311D01*
X030771Y007105D02*
X030771Y007735D01*
X030776Y007751D01*
X030784Y007767D01*
X030794Y007781D01*
X030806Y007793D01*
X030821Y007803D01*
X030837Y007810D01*
X030854Y007814D01*
X030871Y007815D01*
X030889Y007813D01*
X031440Y007813D02*
X031460Y007815D01*
X031479Y007813D01*
X031498Y007807D01*
X031515Y007798D01*
X031531Y007786D01*
X031543Y007771D01*
X031552Y007753D01*
X031558Y007735D01*
X031558Y007105D01*
X031552Y007087D01*
X031543Y007069D01*
X031531Y007054D01*
X031515Y007042D01*
X031498Y007033D01*
X031479Y007027D01*
X031460Y007025D01*
X031440Y007027D01*
X030889Y007027D02*
X030871Y007025D01*
X030854Y007026D01*
X030837Y007030D01*
X030821Y007037D01*
X030806Y007047D01*
X030794Y007059D01*
X030784Y007073D01*
X030776Y007089D01*
X030771Y007105D01*
X024075Y022606D02*
X023852Y022828D01*
X023462Y023218D02*
X023240Y023441D01*
X024036Y023441D02*
X024038Y023453D01*
X024043Y023464D01*
X024052Y023473D01*
X024063Y023478D01*
X024075Y023480D01*
X024087Y023478D01*
X024098Y023473D01*
X024107Y023464D01*
X024112Y023453D01*
X024114Y023441D01*
X024112Y023429D01*
X024107Y023418D01*
X024098Y023409D01*
X024087Y023404D01*
X024075Y023402D01*
X024063Y023404D01*
X024052Y023409D01*
X024043Y023418D01*
X024038Y023429D01*
X024036Y023441D01*
X024854Y024610D02*
X024632Y024833D01*
X025244Y024220D02*
X025467Y023998D01*
X020980Y026037D02*
X020618Y025675D01*
X019616Y026677D02*
X019978Y027039D01*
D14*
X020447Y026923D02*
X020500Y026976D01*
X020570Y026976D01*
X020588Y026993D01*
X020586Y026925D02*
X020657Y026925D01*
X020551Y026818D01*
X020586Y026783D02*
X020515Y026854D01*
X020500Y026976D02*
X020500Y027046D01*
X020517Y027064D01*
X019740Y026286D02*
X019793Y026233D01*
X019793Y026198D01*
X019757Y026162D01*
X019722Y026162D01*
X019669Y026216D01*
X019704Y026180D02*
X019704Y026109D01*
X019738Y026076D02*
X019844Y026182D01*
X019915Y026111D01*
X019930Y026060D02*
X019913Y026043D01*
X019913Y026007D01*
X019948Y025972D01*
X019948Y025936D01*
X019930Y025919D01*
X019895Y025919D01*
X019859Y025954D01*
X019859Y025990D01*
X019808Y026005D02*
X019738Y026076D01*
X019791Y026129D02*
X019826Y026094D01*
X019930Y026060D02*
X019966Y026060D01*
X020001Y026025D01*
X020001Y025990D01*
X020034Y025956D02*
X019964Y025885D01*
X019964Y025850D01*
X019999Y025815D01*
X020034Y025815D01*
X020105Y025885D01*
X020105Y025921D01*
X020070Y025956D01*
X020034Y025956D01*
X020156Y025870D02*
X020121Y025693D01*
X020227Y025799D01*
X020225Y025730D02*
X020296Y025730D01*
X020296Y025659D01*
X020225Y025589D01*
X020278Y025642D02*
X020207Y025712D01*
X020225Y025730D02*
X020154Y025659D01*
X020050Y025763D02*
X020156Y025870D01*
X020365Y025661D02*
X020435Y025591D01*
X020400Y025626D02*
X020294Y025520D01*
X020380Y025469D02*
X020380Y025433D01*
X020416Y025398D01*
X020451Y025398D01*
X020522Y025469D01*
X020522Y025504D01*
X020486Y025539D01*
X020451Y025539D01*
X020380Y025469D01*
X020502Y025382D02*
X020555Y025329D01*
X020591Y025329D01*
X020626Y025364D01*
X020626Y025400D01*
X020573Y025453D01*
X020467Y025347D01*
X020538Y025347D02*
X020538Y025276D01*
X020589Y025260D02*
X020589Y025225D01*
X020624Y025190D01*
X020659Y025190D01*
X020677Y025207D01*
X020677Y025243D01*
X020642Y025278D01*
X020642Y025313D01*
X020659Y025331D01*
X020695Y025331D01*
X020730Y025296D01*
X020730Y025260D01*
X020781Y025245D02*
X020781Y025174D01*
X020852Y025174D01*
X020746Y025068D01*
X020779Y025034D02*
X020832Y024981D01*
X020868Y024981D01*
X020939Y025052D01*
X020939Y025087D01*
X020886Y025140D01*
X020779Y025034D01*
X020675Y025138D02*
X020781Y025245D01*
X019740Y026286D02*
X019633Y026180D01*
X023560Y024263D02*
X023631Y024263D01*
X023702Y024192D01*
X023735Y024225D02*
X023788Y024279D01*
X023788Y024314D01*
X023718Y024385D01*
X023682Y024385D01*
X023629Y024332D01*
X023735Y024225D01*
X023649Y024245D02*
X023578Y024174D01*
X023560Y024192D02*
X023560Y024263D01*
X023560Y024192D02*
X023631Y024121D01*
X023839Y024330D02*
X023804Y024507D01*
X023837Y024540D02*
X023944Y024434D01*
X024014Y024505D01*
X024030Y024556D02*
X024065Y024556D01*
X024101Y024591D01*
X024101Y024626D01*
X024083Y024644D01*
X024048Y024644D01*
X024030Y024626D01*
X024048Y024644D02*
X024048Y024680D01*
X024030Y024697D01*
X023995Y024697D01*
X023959Y024662D01*
X023959Y024626D01*
X024099Y024695D02*
X024170Y024766D01*
X024203Y024799D02*
X024221Y024853D01*
X024238Y024870D01*
X024274Y024870D01*
X024309Y024835D01*
X024309Y024799D01*
X024274Y024764D01*
X024238Y024764D01*
X024203Y024799D02*
X024150Y024853D01*
X024221Y024923D01*
X024099Y024801D02*
X024099Y024695D01*
X024205Y024695D02*
X024099Y024801D01*
X023910Y024400D02*
X023733Y024436D01*
X025319Y023476D02*
X025407Y023387D01*
X025442Y023387D01*
X025478Y023422D01*
X025478Y023458D01*
X025389Y023546D01*
X025440Y023562D02*
X025440Y023597D01*
X025476Y023633D01*
X025511Y023633D01*
X025529Y023615D01*
X025529Y023474D01*
X025600Y023544D01*
X010805Y008187D02*
X010655Y008187D01*
X010655Y008087D02*
X010805Y008187D01*
X010805Y008087D02*
X010655Y008087D01*
X010655Y008038D02*
X010655Y007988D01*
X010655Y008013D02*
X010805Y008013D01*
X010805Y007988D02*
X010805Y008038D01*
X010730Y007941D02*
X010755Y007916D01*
X010755Y007841D01*
X010805Y007841D02*
X010655Y007841D01*
X010655Y007916D01*
X010680Y007941D01*
X010730Y007941D01*
X010730Y007794D02*
X010780Y007794D01*
X010805Y007769D01*
X010805Y007719D01*
X010780Y007694D01*
X010730Y007694D02*
X010705Y007744D01*
X010705Y007769D01*
X010730Y007794D01*
X010655Y007794D02*
X010655Y007694D01*
X010730Y007694D01*
X010730Y007646D02*
X010730Y007546D01*
X010755Y007499D02*
X010780Y007499D01*
X010805Y007474D01*
X010805Y007399D01*
X010655Y007399D01*
X010655Y007474D01*
X010680Y007499D01*
X010705Y007499D01*
X010730Y007474D01*
X010730Y007399D01*
X010730Y007474D02*
X010755Y007499D01*
X010805Y007351D02*
X010805Y007301D01*
X010805Y007326D02*
X010655Y007326D01*
X010655Y007301D02*
X010655Y007351D01*
X010655Y007254D02*
X010805Y007254D01*
X010655Y007153D01*
X010805Y007153D01*
X010805Y007105D02*
X010805Y007055D01*
X010805Y007080D02*
X010655Y007080D01*
X010655Y007055D02*
X010655Y007105D01*
X010655Y007008D02*
X010805Y007008D01*
X010805Y006908D02*
X010655Y006908D01*
X010705Y006958D01*
X010655Y007008D01*
X010730Y006861D02*
X010730Y006761D01*
X010755Y006713D02*
X010780Y006713D01*
X010805Y006688D01*
X010805Y006613D01*
X010655Y006613D01*
X010655Y006688D01*
X010680Y006713D01*
X010705Y006713D01*
X010730Y006688D01*
X010730Y006613D01*
X010755Y006566D02*
X010780Y006566D01*
X010805Y006541D01*
X010805Y006491D01*
X010780Y006466D01*
X010780Y006419D02*
X010655Y006419D01*
X010680Y006466D02*
X010705Y006466D01*
X010730Y006491D01*
X010730Y006541D01*
X010755Y006566D01*
X010680Y006566D02*
X010655Y006541D01*
X010655Y006491D01*
X010680Y006466D01*
X010780Y006419D02*
X010805Y006394D01*
X010805Y006344D01*
X010780Y006319D01*
X010655Y006319D01*
X010305Y006344D02*
X010305Y006394D01*
X010280Y006419D01*
X010155Y006419D01*
X010180Y006466D02*
X010155Y006491D01*
X010155Y006541D01*
X010180Y006566D01*
X010205Y006613D02*
X010155Y006663D01*
X010305Y006663D01*
X010305Y006613D02*
X010305Y006713D01*
X010305Y006761D02*
X010205Y006861D01*
X010180Y006861D01*
X010155Y006836D01*
X010155Y006786D01*
X010180Y006761D01*
X010305Y006761D02*
X010305Y006861D01*
X010280Y006566D02*
X010255Y006566D01*
X010230Y006541D01*
X010230Y006491D01*
X010205Y006466D01*
X010180Y006466D01*
X010130Y006516D02*
X010330Y006516D01*
X010305Y006491D02*
X010305Y006541D01*
X010280Y006566D01*
X010305Y006491D02*
X010280Y006466D01*
X010305Y006344D02*
X010280Y006319D01*
X010155Y006319D01*
X010730Y006688D02*
X010755Y006713D01*
X014274Y006790D02*
X014299Y006765D01*
X014324Y006765D01*
X014349Y006790D01*
X014349Y006915D01*
X014324Y006915D02*
X014374Y006915D01*
X014421Y006915D02*
X014496Y006915D01*
X014521Y006890D01*
X014521Y006840D01*
X014496Y006815D01*
X014421Y006815D01*
X014421Y006765D02*
X014421Y006915D01*
X014568Y006890D02*
X014593Y006915D01*
X014643Y006915D01*
X014668Y006890D01*
X014668Y006865D01*
X014568Y006765D01*
X014668Y006765D01*
X031669Y007390D02*
X031669Y007441D01*
X031669Y007416D02*
X031794Y007416D01*
X031819Y007390D01*
X031819Y007365D01*
X031794Y007340D01*
X031769Y007488D02*
X031769Y007563D01*
X031744Y007588D01*
X031694Y007588D01*
X031669Y007563D01*
X031669Y007488D01*
X031819Y007488D01*
X031819Y007635D02*
X031819Y007735D01*
X031819Y007685D02*
X031669Y007685D01*
X031719Y007635D01*
D15*
X032176Y010274D02*
X033176Y010274D01*
X033176Y012636D01*
X032176Y012636D02*
X032176Y010274D01*
X031176Y010274D01*
X031176Y012636D01*
X030176Y012636D02*
X030176Y010274D01*
X029176Y010274D01*
X029176Y012636D01*
X029176Y010274D02*
X028676Y010274D01*
X028676Y009290D01*
X034676Y009290D01*
X034676Y010274D01*
X034176Y010274D01*
X034176Y012636D01*
X034176Y010274D02*
X033176Y010274D01*
X031176Y010274D02*
X030176Y010274D01*
X021038Y026658D02*
X020008Y027688D01*
X022235Y029915D01*
X023265Y028885D01*
X021038Y026658D01*
X022221Y028537D02*
X022361Y028676D01*
X022500Y028815D01*
X022361Y028676D02*
X022695Y028342D01*
X022054Y028982D02*
X022193Y029121D01*
X022054Y028982D02*
X021915Y028843D01*
X022054Y028982D02*
X021692Y029344D01*
X006282Y014034D02*
X006282Y011042D01*
X004314Y011042D01*
X004314Y014034D01*
X006282Y014034D01*
X006101Y010688D02*
X006103Y010711D01*
X006109Y010734D01*
X006118Y010756D01*
X006131Y010775D01*
X006147Y010792D01*
X006165Y010807D01*
X006186Y010818D01*
X006208Y010826D01*
X006231Y010830D01*
X006255Y010830D01*
X006278Y010826D01*
X006300Y010818D01*
X006321Y010807D01*
X006339Y010792D01*
X006355Y010775D01*
X006368Y010756D01*
X006377Y010734D01*
X006383Y010711D01*
X006385Y010688D01*
X006383Y010665D01*
X006377Y010642D01*
X006368Y010620D01*
X006355Y010601D01*
X006339Y010584D01*
X006321Y010569D01*
X006300Y010558D01*
X006278Y010550D01*
X006255Y010546D01*
X006231Y010546D01*
X006208Y010550D01*
X006186Y010558D01*
X006165Y010569D01*
X006147Y010584D01*
X006131Y010601D01*
X006118Y010620D01*
X006109Y010642D01*
X006103Y010665D01*
X006101Y010688D01*
X009747Y009585D02*
X009749Y009603D01*
X009755Y009619D01*
X009764Y009634D01*
X009777Y009647D01*
X009792Y009656D01*
X009808Y009662D01*
X009826Y009664D01*
X009844Y009662D01*
X009860Y009656D01*
X009875Y009647D01*
X009888Y009634D01*
X009897Y009619D01*
X009903Y009603D01*
X009905Y009585D01*
X009903Y009567D01*
X009897Y009551D01*
X009888Y009536D01*
X009875Y009523D01*
X009860Y009514D01*
X009844Y009508D01*
X009826Y009506D01*
X009808Y009508D01*
X009792Y009514D01*
X009777Y009523D01*
X009764Y009536D01*
X009755Y009551D01*
X009749Y009567D01*
X009747Y009585D01*
X010023Y009979D02*
X010023Y010766D01*
X011204Y010766D02*
X011204Y009979D01*
M02*
