G75*
%MOIN*%
%OFA0B0*%
%FSLAX24Y24*%
%IPPOS*%
%LPD*%
%AMOC8*
5,1,8,0,0,1.08239X$1,22.5*
%
%ADD10C,0.1260*%
%ADD11R,0.0434X0.0473*%
%ADD12R,0.0473X0.0434*%
%ADD13R,0.0316X0.0709*%
%ADD14R,0.0827X0.0434*%
%ADD15R,0.0552X0.0788*%
%ADD16R,0.0920X0.0520*%
%ADD17R,0.0906X0.1457*%
%ADD18R,0.0985X0.0985*%
%ADD19R,0.0237X0.0512*%
%ADD20R,0.0434X0.1024*%
%ADD21R,0.0237X0.1024*%
%ADD22R,0.0827X0.1024*%
%ADD23C,0.0394*%
%ADD24R,0.0276X0.0512*%
%ADD25R,0.0591X0.0434*%
%ADD26R,0.0540X0.0290*%
%ADD27R,0.0290X0.0540*%
D10*
X002936Y008207D03*
X036794Y008207D03*
X036794Y042066D03*
X002936Y042066D03*
D11*
X007326Y007617D03*
X007995Y007617D03*
X007995Y008601D03*
X007326Y008601D03*
X007326Y009585D03*
X007995Y009585D03*
X007995Y010570D03*
X007326Y010570D03*
X009432Y010668D03*
X009432Y009999D03*
X010948Y011554D03*
X011617Y011554D03*
X012700Y010510D03*
X012700Y009841D03*
X013684Y009841D03*
X013684Y010510D03*
X021046Y008936D03*
X021046Y008266D03*
X022030Y008266D03*
X022030Y008936D03*
X023015Y008936D03*
X023015Y008266D03*
G36*
X019240Y020005D02*
X018933Y019698D01*
X018600Y020031D01*
X018907Y020338D01*
X019240Y020005D01*
G37*
G36*
X019713Y020478D02*
X019406Y020171D01*
X019073Y020504D01*
X019380Y020811D01*
X019713Y020478D01*
G37*
G36*
X019122Y021069D02*
X018815Y020762D01*
X018482Y021095D01*
X018789Y021402D01*
X019122Y021069D01*
G37*
G36*
X018649Y020596D02*
X018342Y020289D01*
X018009Y020622D01*
X018316Y020929D01*
X018649Y020596D01*
G37*
G36*
X018059Y021186D02*
X017752Y020879D01*
X017419Y021212D01*
X017726Y021519D01*
X018059Y021186D01*
G37*
G36*
X018532Y021659D02*
X018225Y021352D01*
X017892Y021685D01*
X018199Y021992D01*
X018532Y021659D01*
G37*
G36*
X017941Y022250D02*
X017634Y021943D01*
X017301Y022276D01*
X017608Y022583D01*
X017941Y022250D01*
G37*
G36*
X017468Y021777D02*
X017161Y021470D01*
X016828Y021803D01*
X017135Y022110D01*
X017468Y021777D01*
G37*
G36*
X016366Y022840D02*
X016059Y022533D01*
X015726Y022866D01*
X016033Y023173D01*
X016366Y022840D01*
G37*
G36*
X016839Y023313D02*
X016532Y023006D01*
X016199Y023339D01*
X016506Y023646D01*
X016839Y023313D01*
G37*
G36*
X016248Y023903D02*
X015941Y023596D01*
X015608Y023929D01*
X015915Y024236D01*
X016248Y023903D01*
G37*
G36*
X015775Y023430D02*
X015468Y023123D01*
X015135Y023456D01*
X015442Y023763D01*
X015775Y023430D01*
G37*
G36*
X015460Y025517D02*
X015153Y025210D01*
X014820Y025543D01*
X015127Y025850D01*
X015460Y025517D01*
G37*
G36*
X015933Y025990D02*
X015626Y025683D01*
X015293Y026016D01*
X015600Y026323D01*
X015933Y025990D01*
G37*
G36*
X016112Y026863D02*
X015805Y027170D01*
X016138Y027503D01*
X016445Y027196D01*
X016112Y026863D01*
G37*
G36*
X015639Y027337D02*
X015332Y027644D01*
X015665Y027977D01*
X015972Y027670D01*
X015639Y027337D01*
G37*
G36*
X016230Y027927D02*
X015923Y028234D01*
X016256Y028567D01*
X016563Y028260D01*
X016230Y027927D01*
G37*
G36*
X016703Y027454D02*
X016396Y027761D01*
X016729Y028094D01*
X017036Y027787D01*
X016703Y027454D01*
G37*
G36*
X021907Y027118D02*
X022214Y027425D01*
X022547Y027092D01*
X022240Y026785D01*
X021907Y027118D01*
G37*
G36*
X022380Y027591D02*
X022687Y027898D01*
X023020Y027565D01*
X022713Y027258D01*
X022380Y027591D01*
G37*
G36*
X024072Y028496D02*
X024379Y028803D01*
X024712Y028470D01*
X024405Y028163D01*
X024072Y028496D01*
G37*
G36*
X024026Y028871D02*
X023719Y029178D01*
X024052Y029511D01*
X024359Y029204D01*
X024026Y028871D01*
G37*
G36*
X024545Y028969D02*
X024852Y029276D01*
X025185Y028943D01*
X024878Y028636D01*
X024545Y028969D01*
G37*
G36*
X023552Y029344D02*
X023245Y029651D01*
X023578Y029984D01*
X023885Y029677D01*
X023552Y029344D01*
G37*
G36*
X022988Y023331D02*
X023295Y023024D01*
X022962Y022691D01*
X022655Y022998D01*
X022988Y023331D01*
G37*
G36*
X023461Y022858D02*
X023768Y022551D01*
X023435Y022218D01*
X023128Y022525D01*
X023461Y022858D01*
G37*
G36*
X022871Y022267D02*
X023178Y021960D01*
X022845Y021627D01*
X022538Y021934D01*
X022871Y022267D01*
G37*
G36*
X022397Y022740D02*
X022704Y022433D01*
X022371Y022100D01*
X022064Y022407D01*
X022397Y022740D01*
G37*
G36*
X021807Y022150D02*
X022114Y021843D01*
X021781Y021510D01*
X021474Y021817D01*
X021807Y022150D01*
G37*
G36*
X022280Y021677D02*
X022587Y021370D01*
X022254Y021037D01*
X021947Y021344D01*
X022280Y021677D01*
G37*
X002798Y014507D03*
X002129Y014507D03*
X002129Y013522D03*
X002798Y013522D03*
X002798Y012538D03*
X002129Y012538D03*
X002129Y011357D03*
X002798Y011357D03*
D12*
X010180Y011416D03*
X010180Y012085D03*
G36*
X019752Y023535D02*
X019419Y023202D01*
X019112Y023509D01*
X019445Y023842D01*
X019752Y023535D01*
G37*
G36*
X020225Y024008D02*
X019892Y023675D01*
X019585Y023982D01*
X019918Y024315D01*
X020225Y024008D01*
G37*
G36*
X021270Y025220D02*
X021603Y024887D01*
X021296Y024580D01*
X020963Y024913D01*
X021270Y025220D01*
G37*
G36*
X020797Y025693D02*
X021130Y025360D01*
X020823Y025053D01*
X020490Y025386D01*
X020797Y025693D01*
G37*
G36*
X019191Y026148D02*
X019524Y026481D01*
X019831Y026174D01*
X019498Y025841D01*
X019191Y026148D01*
G37*
G36*
X018718Y025674D02*
X019051Y026007D01*
X019358Y025700D01*
X019025Y025367D01*
X018718Y025674D01*
G37*
G36*
X018067Y025053D02*
X017734Y025386D01*
X018041Y025693D01*
X018374Y025360D01*
X018067Y025053D01*
G37*
G36*
X018540Y024580D02*
X018207Y024913D01*
X018514Y025220D01*
X018847Y024887D01*
X018540Y024580D01*
G37*
G36*
X023828Y028213D02*
X024161Y027880D01*
X023854Y027573D01*
X023521Y027906D01*
X023828Y028213D01*
G37*
G36*
X024301Y027740D02*
X024634Y027407D01*
X024327Y027100D01*
X023994Y027433D01*
X024301Y027740D01*
G37*
G36*
X021309Y030771D02*
X021642Y030438D01*
X021335Y030131D01*
X021002Y030464D01*
X021309Y030771D01*
G37*
G36*
X020836Y031244D02*
X021169Y030911D01*
X020862Y030604D01*
X020529Y030937D01*
X020836Y031244D01*
G37*
G36*
X025648Y023746D02*
X025981Y024079D01*
X026288Y023772D01*
X025955Y023439D01*
X025648Y023746D01*
G37*
G36*
X025175Y023273D02*
X025508Y023606D01*
X025815Y023299D01*
X025482Y022966D01*
X025175Y023273D01*
G37*
G36*
X025422Y022906D02*
X025089Y022573D01*
X024782Y022880D01*
X025115Y023213D01*
X025422Y022906D01*
G37*
G36*
X024948Y022433D02*
X024615Y022100D01*
X024308Y022407D01*
X024641Y022740D01*
X024948Y022433D01*
G37*
D13*
G36*
X020494Y025661D02*
X020270Y025885D01*
X020770Y026385D01*
X020994Y026161D01*
X020494Y025661D01*
G37*
G36*
X020160Y025995D02*
X019936Y026219D01*
X020436Y026719D01*
X020660Y026495D01*
X020160Y025995D01*
G37*
G36*
X019826Y026329D02*
X019602Y026553D01*
X020102Y027053D01*
X020326Y026829D01*
X019826Y026329D01*
G37*
D14*
X006282Y013538D03*
X006282Y012538D03*
X006282Y011538D03*
X004314Y011538D03*
X004314Y012538D03*
X004314Y013538D03*
D15*
G36*
X019507Y028132D02*
X019897Y028522D01*
X020453Y027966D01*
X020063Y027576D01*
X019507Y028132D01*
G37*
G36*
X020927Y026713D02*
X021317Y027103D01*
X021873Y026547D01*
X021483Y026157D01*
X020927Y026713D01*
G37*
G36*
X022820Y028606D02*
X023210Y028996D01*
X023766Y028440D01*
X023376Y028050D01*
X022820Y028606D01*
G37*
G36*
X021400Y030026D02*
X021790Y030416D01*
X022346Y029860D01*
X021956Y029470D01*
X021400Y030026D01*
G37*
D16*
X019904Y009511D03*
X019904Y008601D03*
X019904Y007691D03*
D17*
X017464Y008601D03*
D18*
X015928Y007617D03*
X015928Y009585D03*
X024196Y009585D03*
X024196Y007617D03*
D19*
G36*
X023839Y022953D02*
X024006Y023120D01*
X024367Y022759D01*
X024200Y022592D01*
X023839Y022953D01*
G37*
G36*
X023672Y022871D02*
X023505Y023038D01*
X023866Y023399D01*
X024033Y023232D01*
X023672Y022871D01*
G37*
G36*
X024589Y022982D02*
X024422Y022815D01*
X024061Y023176D01*
X024228Y023343D01*
X024589Y022982D01*
G37*
G36*
X024812Y023205D02*
X024645Y023038D01*
X024284Y023399D01*
X024451Y023566D01*
X024812Y023205D01*
G37*
G36*
X025035Y023427D02*
X024868Y023260D01*
X024507Y023621D01*
X024674Y023788D01*
X025035Y023427D01*
G37*
G36*
X025258Y023650D02*
X025091Y023483D01*
X024730Y023844D01*
X024897Y024011D01*
X025258Y023650D01*
G37*
G36*
X025480Y023873D02*
X025313Y023706D01*
X024952Y024067D01*
X025119Y024234D01*
X025480Y023873D01*
G37*
G36*
X025035Y024568D02*
X025202Y024401D01*
X024841Y024040D01*
X024674Y024207D01*
X025035Y024568D01*
G37*
G36*
X024868Y024485D02*
X024701Y024318D01*
X024340Y024679D01*
X024507Y024846D01*
X024868Y024485D01*
G37*
G36*
X024645Y024262D02*
X024478Y024095D01*
X024117Y024456D01*
X024284Y024623D01*
X024645Y024262D01*
G37*
G36*
X023894Y024234D02*
X024061Y024401D01*
X024422Y024040D01*
X024255Y023873D01*
X023894Y024234D01*
G37*
G36*
X023672Y024011D02*
X023839Y024178D01*
X024200Y023817D01*
X024033Y023650D01*
X023672Y024011D01*
G37*
G36*
X023449Y023788D02*
X023616Y023955D01*
X023977Y023594D01*
X023810Y023427D01*
X023449Y023788D01*
G37*
G36*
X023226Y023566D02*
X023393Y023733D01*
X023754Y023372D01*
X023587Y023205D01*
X023226Y023566D01*
G37*
D20*
X029176Y008404D03*
X030176Y008404D03*
X031176Y008404D03*
X032176Y008404D03*
X033176Y008404D03*
X034176Y008404D03*
D21*
X011440Y008798D03*
X011125Y008798D03*
X010810Y008798D03*
X010495Y008798D03*
X010180Y008798D03*
D22*
X009038Y008798D03*
X009038Y006633D03*
X012582Y006633D03*
X012582Y008798D03*
D23*
X011676Y007814D03*
X009944Y007814D03*
D24*
X010239Y009920D03*
X010613Y009920D03*
X010987Y009920D03*
X010987Y010825D03*
X010613Y010825D03*
X010239Y010825D03*
D25*
X006519Y010156D03*
X006519Y009408D03*
X006519Y008581D03*
X006519Y007833D03*
X005652Y008207D03*
X005652Y009782D03*
X027700Y010589D03*
X027700Y011337D03*
X028566Y010963D03*
D26*
X031164Y007597D03*
X031164Y007243D03*
D27*
X014530Y007420D03*
X014176Y007420D03*
M02*
