%
M48
M72
T01C0.0122
T02C0.0354
T03C0.1220
%
T01
X1755Y7026
X1755Y9388
X5298Y8995
X7857Y7026
X8645Y9585
X9865Y9546
X8645Y11160
X8054Y12144
X10180Y12735
X11071Y13033
X11440Y12302
X13172Y13544
X14260Y12548
X15485Y11657
X16836Y10888
X18301Y10258
X19000Y8624
X17503Y7617
X14747Y8995
X11794Y9585
X10118Y14311
X9332Y15653
X8717Y17037
X8273Y18444
X6198Y19051
X6011Y20635
X6002Y22190
X6161Y23696
X6479Y25136
X4986Y26700
X5616Y28165
X6385Y29516
X7277Y30741
X8273Y31829
X7762Y33930
X9040Y34884
X10381Y35669
X11766Y36284
X13172Y36729
X13780Y38804
X15364Y38990
X16918Y39000
X18425Y38841
X19865Y38522
X19078Y37341
X18015Y36790
X18172Y35885
X19865Y34192
X18960Y33750
X18146Y33224
X17432Y32625
X16823Y31970
X16519Y30933
X17503Y29861
X18290Y31436
X19865Y31239
X19865Y31829
X20550Y32577
X21502Y32838
X22420Y33000
X23388Y33049
X24393Y32978
X24262Y31188
X25134Y30988
X26009Y30669
X26870Y30228
X27707Y29664
X26699Y28179
X27354Y27570
X27952Y26855
X28479Y26042
X28920Y25136
X27567Y23499
X27304Y24355
X26558Y23955
X26164Y23286
X26007Y22459
X25661Y21790
X24904Y22026
X24196Y21199
X23999Y20609
X23487Y20018
X23211Y19340
X24196Y19152
X25397Y18992
X25717Y19868
X25917Y20740
X27707Y20609
X27778Y21614
X27728Y22582
X26558Y25136
X25771Y25924
X25377Y25648
X24983Y26042
X24983Y26711
X25574Y27302
X24550Y28010
X23802Y27105
X23448Y26672
X23172Y26987
X22582Y26790
X22149Y26554
X21243Y25806
X21715Y25294
X22424Y25097
X22818Y24310
X23211Y24113
X22659Y23325
X22267Y23719
X22109Y23168
X21125Y22696
X21164Y22302
X20652Y21593
X20259Y21357
X20259Y20806
X21046Y20806
X21412Y20995
X21440Y20018
X20652Y19231
X21440Y18837
X20652Y18444
X19865Y18444
X19083Y17697
X18228Y17435
X17310Y17273
X16342Y17224
X15337Y17295
X15468Y19085
X14596Y19285
X13721Y19604
X12858Y20045
X12023Y20609
X13031Y22094
X12376Y22703
X11778Y23418
X11251Y24231
X10810Y25136
X12426Y25918
X13172Y25609
X13172Y25136
X13566Y25136
X13605Y24743
X13566Y24270
X13960Y23955
X13566Y23640
X13645Y23129
X14983Y23129
X15652Y22499
X15219Y22223
X14069Y21790
X15141Y20924
X15731Y20215
X16519Y19340
X17109Y19349
X17503Y19625
X17503Y18837
X18881Y19034
X19865Y19743
X19550Y21160
X19865Y21987
X19550Y22223
X19196Y21987
X18841Y22302
X18526Y21948
X18172Y22302
X17936Y22617
X18054Y23050
X18723Y23877
X17936Y24703
X17660Y25018
X16834Y24231
X15928Y24743
X16676Y25806
X15928Y26318
X16400Y26633
X16755Y26869
X16912Y27262
X17778Y27459
X18763Y26357
X19235Y26751
X19747Y27341
X20456Y26987
X20731Y26711
X21124Y27656
X21400Y28050
X21834Y29073
X22621Y30255
X23211Y30933
X23448Y29152
X25661Y28483
X23093Y25648
X23881Y24861
X25259Y24625
X23920Y22066
X23212Y21593
X21282Y24073
X20534Y23483
X19944Y22971
X17109Y22381
X16243Y21514
X16597Y21081
X13093Y16751
X12149Y17420
X11715Y16987
X10928Y17774
X11400Y18207
X9826Y21081
X9668Y21436
X9156Y20766
X8960Y21160
X9629Y22381
X9117Y23404
X8408Y23286
X12163Y26774
X12002Y27691
X11952Y28659
X12023Y29664
X13813Y29533
X14014Y30405
X14333Y31281
X14774Y32144
X15337Y32978
X12188Y32814
X9708Y28995
X9121Y29235
X8645Y28089
X9393Y27932
X13763Y26121
X14353Y27223
X14156Y27696
X14069Y28483
X15298Y27302
X15928Y29073
X19865Y29467
X26558Y36729
X25470Y37725
X24245Y38616
X22894Y39385
X21429Y40015
X19865Y42262
X28659Y37240
X29612Y35962
X30398Y34620
X31013Y33236
X31458Y31829
X33532Y31222
X33719Y29638
X33729Y28083
X33569Y26577
X33251Y25136
X34744Y23573
X34114Y22108
X33345Y20757
X32453Y19532
X31459Y18444
X31968Y16343
X32857Y16475
X33645Y15688
X30690Y15389
X29349Y14604
X27964Y13989
X26558Y13543
X25950Y11469
X26952Y11357
X25967Y10176
X24366Y11283
X22812Y11273
X21305Y11432
X19865Y11751
X18172Y14467
X17070Y14703
X16007Y15018
X19865Y16081
X20770Y16523
X21586Y17050
X22298Y17648
X22908Y18303
X24393Y17295
X24956Y18129
X27542Y17459
X28211Y18325
X28802Y17853
X31282Y21987
X30298Y22262
X31282Y23286
X30495Y23404
X30534Y26869
X30337Y27932
X30967Y28089
X28290Y31948
X36597Y32814
X36597Y17853
X37975Y9388
X37975Y7026
X32168Y7558
X6873Y15688
X6479Y14507
X5613Y12538
X5298Y11554
X3526Y13562
X3133Y17853
X3133Y32814
T02
X9944Y7814
X11676Y7814
T03
X2936Y8207
X36794Y8207
X36794Y42066
X2936Y42066
M30
