G75*
%MOIN*%
%OFA0B0*%
%FSLAX24Y24*%
%IPPOS*%
%LPD*%
%AMOC8*
5,1,8,0,0,1.08239X$1,22.5*
%
%ADD10C,0.0080*%
%ADD11C,0.0000*%
D10*
X002936Y005451D02*
X036794Y005451D01*
X036897Y005453D01*
X037000Y005459D01*
X037103Y005468D01*
X037205Y005482D01*
X037306Y005499D01*
X037407Y005520D01*
X037507Y005545D01*
X037606Y005573D01*
X037704Y005606D01*
X037801Y005642D01*
X037896Y005681D01*
X037990Y005724D01*
X038082Y005770D01*
X038172Y005820D01*
X038260Y005873D01*
X038347Y005930D01*
X038431Y005990D01*
X038512Y006052D01*
X038592Y006118D01*
X038669Y006187D01*
X038743Y006258D01*
X038814Y006332D01*
X038883Y006409D01*
X038949Y006489D01*
X039011Y006570D01*
X039071Y006654D01*
X039128Y006741D01*
X039181Y006829D01*
X039231Y006919D01*
X039277Y007011D01*
X039320Y007105D01*
X039359Y007200D01*
X039395Y007297D01*
X039428Y007395D01*
X039456Y007494D01*
X039481Y007594D01*
X039502Y007695D01*
X039519Y007796D01*
X039533Y007898D01*
X039542Y008001D01*
X039548Y008104D01*
X039550Y008207D01*
X039550Y042066D01*
X039548Y042169D01*
X039542Y042272D01*
X039533Y042375D01*
X039519Y042477D01*
X039502Y042578D01*
X039481Y042679D01*
X039456Y042779D01*
X039428Y042878D01*
X039395Y042976D01*
X039359Y043073D01*
X039320Y043168D01*
X039277Y043262D01*
X039231Y043354D01*
X039181Y043444D01*
X039128Y043532D01*
X039071Y043619D01*
X039011Y043703D01*
X038949Y043784D01*
X038883Y043864D01*
X038814Y043941D01*
X038743Y044015D01*
X038669Y044086D01*
X038592Y044155D01*
X038512Y044221D01*
X038431Y044283D01*
X038347Y044343D01*
X038260Y044400D01*
X038172Y044453D01*
X038082Y044503D01*
X037990Y044549D01*
X037896Y044592D01*
X037801Y044631D01*
X037704Y044667D01*
X037606Y044700D01*
X037507Y044728D01*
X037407Y044753D01*
X037306Y044774D01*
X037205Y044791D01*
X037103Y044805D01*
X037000Y044814D01*
X036897Y044820D01*
X036794Y044822D01*
X002936Y044822D01*
X002833Y044820D01*
X002730Y044814D01*
X002627Y044805D01*
X002525Y044791D01*
X002424Y044774D01*
X002323Y044753D01*
X002223Y044728D01*
X002124Y044700D01*
X002026Y044667D01*
X001929Y044631D01*
X001834Y044592D01*
X001740Y044549D01*
X001648Y044503D01*
X001558Y044453D01*
X001470Y044400D01*
X001383Y044343D01*
X001299Y044283D01*
X001218Y044221D01*
X001138Y044155D01*
X001061Y044086D01*
X000987Y044015D01*
X000916Y043941D01*
X000847Y043864D01*
X000781Y043784D01*
X000719Y043703D01*
X000659Y043619D01*
X000602Y043532D01*
X000549Y043444D01*
X000499Y043354D01*
X000453Y043262D01*
X000410Y043168D01*
X000371Y043073D01*
X000335Y042976D01*
X000302Y042878D01*
X000274Y042779D01*
X000249Y042679D01*
X000228Y042578D01*
X000211Y042477D01*
X000197Y042375D01*
X000188Y042272D01*
X000182Y042169D01*
X000180Y042066D01*
X000180Y008207D01*
X000182Y008104D01*
X000188Y008001D01*
X000197Y007898D01*
X000211Y007796D01*
X000228Y007695D01*
X000249Y007594D01*
X000274Y007494D01*
X000302Y007395D01*
X000335Y007297D01*
X000371Y007200D01*
X000410Y007105D01*
X000453Y007011D01*
X000499Y006919D01*
X000549Y006829D01*
X000602Y006741D01*
X000659Y006654D01*
X000719Y006570D01*
X000781Y006489D01*
X000847Y006409D01*
X000916Y006332D01*
X000987Y006258D01*
X001061Y006187D01*
X001138Y006118D01*
X001218Y006052D01*
X001299Y005990D01*
X001383Y005930D01*
X001470Y005873D01*
X001558Y005820D01*
X001648Y005770D01*
X001740Y005724D01*
X001834Y005681D01*
X001929Y005642D01*
X002026Y005606D01*
X002124Y005573D01*
X002223Y005545D01*
X002323Y005520D01*
X002424Y005499D01*
X002525Y005482D01*
X002627Y005468D01*
X002730Y005459D01*
X002833Y005453D01*
X002936Y005451D01*
D11*
X002326Y008207D02*
X002328Y008256D01*
X002334Y008305D01*
X002344Y008353D01*
X002357Y008400D01*
X002375Y008446D01*
X002396Y008490D01*
X002420Y008533D01*
X002448Y008573D01*
X002479Y008612D01*
X002513Y008647D01*
X002550Y008680D01*
X002589Y008709D01*
X002631Y008735D01*
X002674Y008758D01*
X002720Y008777D01*
X002766Y008793D01*
X002814Y008805D01*
X002862Y008813D01*
X002911Y008817D01*
X002961Y008817D01*
X003010Y008813D01*
X003058Y008805D01*
X003106Y008793D01*
X003152Y008777D01*
X003198Y008758D01*
X003241Y008735D01*
X003283Y008709D01*
X003322Y008680D01*
X003359Y008647D01*
X003393Y008612D01*
X003424Y008573D01*
X003452Y008533D01*
X003476Y008490D01*
X003497Y008446D01*
X003515Y008400D01*
X003528Y008353D01*
X003538Y008305D01*
X003544Y008256D01*
X003546Y008207D01*
X003544Y008158D01*
X003538Y008109D01*
X003528Y008061D01*
X003515Y008014D01*
X003497Y007968D01*
X003476Y007924D01*
X003452Y007881D01*
X003424Y007841D01*
X003393Y007802D01*
X003359Y007767D01*
X003322Y007734D01*
X003283Y007705D01*
X003241Y007679D01*
X003198Y007656D01*
X003152Y007637D01*
X003106Y007621D01*
X003058Y007609D01*
X003010Y007601D01*
X002961Y007597D01*
X002911Y007597D01*
X002862Y007601D01*
X002814Y007609D01*
X002766Y007621D01*
X002720Y007637D01*
X002674Y007656D01*
X002631Y007679D01*
X002589Y007705D01*
X002550Y007734D01*
X002513Y007767D01*
X002479Y007802D01*
X002448Y007841D01*
X002420Y007881D01*
X002396Y007924D01*
X002375Y007968D01*
X002357Y008014D01*
X002344Y008061D01*
X002334Y008109D01*
X002328Y008158D01*
X002326Y008207D01*
X009767Y007814D02*
X009769Y007840D01*
X009775Y007866D01*
X009785Y007891D01*
X009798Y007914D01*
X009814Y007934D01*
X009834Y007952D01*
X009856Y007967D01*
X009879Y007979D01*
X009905Y007987D01*
X009931Y007991D01*
X009957Y007991D01*
X009983Y007987D01*
X010009Y007979D01*
X010033Y007967D01*
X010054Y007952D01*
X010074Y007934D01*
X010090Y007914D01*
X010103Y007891D01*
X010113Y007866D01*
X010119Y007840D01*
X010121Y007814D01*
X010119Y007788D01*
X010113Y007762D01*
X010103Y007737D01*
X010090Y007714D01*
X010074Y007694D01*
X010054Y007676D01*
X010032Y007661D01*
X010009Y007649D01*
X009983Y007641D01*
X009957Y007637D01*
X009931Y007637D01*
X009905Y007641D01*
X009879Y007649D01*
X009855Y007661D01*
X009834Y007676D01*
X009814Y007694D01*
X009798Y007714D01*
X009785Y007737D01*
X009775Y007762D01*
X009769Y007788D01*
X009767Y007814D01*
X011499Y007814D02*
X011501Y007840D01*
X011507Y007866D01*
X011517Y007891D01*
X011530Y007914D01*
X011546Y007934D01*
X011566Y007952D01*
X011588Y007967D01*
X011611Y007979D01*
X011637Y007987D01*
X011663Y007991D01*
X011689Y007991D01*
X011715Y007987D01*
X011741Y007979D01*
X011765Y007967D01*
X011786Y007952D01*
X011806Y007934D01*
X011822Y007914D01*
X011835Y007891D01*
X011845Y007866D01*
X011851Y007840D01*
X011853Y007814D01*
X011851Y007788D01*
X011845Y007762D01*
X011835Y007737D01*
X011822Y007714D01*
X011806Y007694D01*
X011786Y007676D01*
X011764Y007661D01*
X011741Y007649D01*
X011715Y007641D01*
X011689Y007637D01*
X011663Y007637D01*
X011637Y007641D01*
X011611Y007649D01*
X011587Y007661D01*
X011566Y007676D01*
X011546Y007694D01*
X011530Y007714D01*
X011517Y007737D01*
X011507Y007762D01*
X011501Y007788D01*
X011499Y007814D01*
X036184Y008207D02*
X036186Y008256D01*
X036192Y008305D01*
X036202Y008353D01*
X036215Y008400D01*
X036233Y008446D01*
X036254Y008490D01*
X036278Y008533D01*
X036306Y008573D01*
X036337Y008612D01*
X036371Y008647D01*
X036408Y008680D01*
X036447Y008709D01*
X036489Y008735D01*
X036532Y008758D01*
X036578Y008777D01*
X036624Y008793D01*
X036672Y008805D01*
X036720Y008813D01*
X036769Y008817D01*
X036819Y008817D01*
X036868Y008813D01*
X036916Y008805D01*
X036964Y008793D01*
X037010Y008777D01*
X037056Y008758D01*
X037099Y008735D01*
X037141Y008709D01*
X037180Y008680D01*
X037217Y008647D01*
X037251Y008612D01*
X037282Y008573D01*
X037310Y008533D01*
X037334Y008490D01*
X037355Y008446D01*
X037373Y008400D01*
X037386Y008353D01*
X037396Y008305D01*
X037402Y008256D01*
X037404Y008207D01*
X037402Y008158D01*
X037396Y008109D01*
X037386Y008061D01*
X037373Y008014D01*
X037355Y007968D01*
X037334Y007924D01*
X037310Y007881D01*
X037282Y007841D01*
X037251Y007802D01*
X037217Y007767D01*
X037180Y007734D01*
X037141Y007705D01*
X037099Y007679D01*
X037056Y007656D01*
X037010Y007637D01*
X036964Y007621D01*
X036916Y007609D01*
X036868Y007601D01*
X036819Y007597D01*
X036769Y007597D01*
X036720Y007601D01*
X036672Y007609D01*
X036624Y007621D01*
X036578Y007637D01*
X036532Y007656D01*
X036489Y007679D01*
X036447Y007705D01*
X036408Y007734D01*
X036371Y007767D01*
X036337Y007802D01*
X036306Y007841D01*
X036278Y007881D01*
X036254Y007924D01*
X036233Y007968D01*
X036215Y008014D01*
X036202Y008061D01*
X036192Y008109D01*
X036186Y008158D01*
X036184Y008207D01*
X036184Y042066D02*
X036186Y042115D01*
X036192Y042164D01*
X036202Y042212D01*
X036215Y042259D01*
X036233Y042305D01*
X036254Y042349D01*
X036278Y042392D01*
X036306Y042432D01*
X036337Y042471D01*
X036371Y042506D01*
X036408Y042539D01*
X036447Y042568D01*
X036489Y042594D01*
X036532Y042617D01*
X036578Y042636D01*
X036624Y042652D01*
X036672Y042664D01*
X036720Y042672D01*
X036769Y042676D01*
X036819Y042676D01*
X036868Y042672D01*
X036916Y042664D01*
X036964Y042652D01*
X037010Y042636D01*
X037056Y042617D01*
X037099Y042594D01*
X037141Y042568D01*
X037180Y042539D01*
X037217Y042506D01*
X037251Y042471D01*
X037282Y042432D01*
X037310Y042392D01*
X037334Y042349D01*
X037355Y042305D01*
X037373Y042259D01*
X037386Y042212D01*
X037396Y042164D01*
X037402Y042115D01*
X037404Y042066D01*
X037402Y042017D01*
X037396Y041968D01*
X037386Y041920D01*
X037373Y041873D01*
X037355Y041827D01*
X037334Y041783D01*
X037310Y041740D01*
X037282Y041700D01*
X037251Y041661D01*
X037217Y041626D01*
X037180Y041593D01*
X037141Y041564D01*
X037099Y041538D01*
X037056Y041515D01*
X037010Y041496D01*
X036964Y041480D01*
X036916Y041468D01*
X036868Y041460D01*
X036819Y041456D01*
X036769Y041456D01*
X036720Y041460D01*
X036672Y041468D01*
X036624Y041480D01*
X036578Y041496D01*
X036532Y041515D01*
X036489Y041538D01*
X036447Y041564D01*
X036408Y041593D01*
X036371Y041626D01*
X036337Y041661D01*
X036306Y041700D01*
X036278Y041740D01*
X036254Y041783D01*
X036233Y041827D01*
X036215Y041873D01*
X036202Y041920D01*
X036192Y041968D01*
X036186Y042017D01*
X036184Y042066D01*
X002326Y042066D02*
X002328Y042115D01*
X002334Y042164D01*
X002344Y042212D01*
X002357Y042259D01*
X002375Y042305D01*
X002396Y042349D01*
X002420Y042392D01*
X002448Y042432D01*
X002479Y042471D01*
X002513Y042506D01*
X002550Y042539D01*
X002589Y042568D01*
X002631Y042594D01*
X002674Y042617D01*
X002720Y042636D01*
X002766Y042652D01*
X002814Y042664D01*
X002862Y042672D01*
X002911Y042676D01*
X002961Y042676D01*
X003010Y042672D01*
X003058Y042664D01*
X003106Y042652D01*
X003152Y042636D01*
X003198Y042617D01*
X003241Y042594D01*
X003283Y042568D01*
X003322Y042539D01*
X003359Y042506D01*
X003393Y042471D01*
X003424Y042432D01*
X003452Y042392D01*
X003476Y042349D01*
X003497Y042305D01*
X003515Y042259D01*
X003528Y042212D01*
X003538Y042164D01*
X003544Y042115D01*
X003546Y042066D01*
X003544Y042017D01*
X003538Y041968D01*
X003528Y041920D01*
X003515Y041873D01*
X003497Y041827D01*
X003476Y041783D01*
X003452Y041740D01*
X003424Y041700D01*
X003393Y041661D01*
X003359Y041626D01*
X003322Y041593D01*
X003283Y041564D01*
X003241Y041538D01*
X003198Y041515D01*
X003152Y041496D01*
X003106Y041480D01*
X003058Y041468D01*
X003010Y041460D01*
X002961Y041456D01*
X002911Y041456D01*
X002862Y041460D01*
X002814Y041468D01*
X002766Y041480D01*
X002720Y041496D01*
X002674Y041515D01*
X002631Y041538D01*
X002589Y041564D01*
X002550Y041593D01*
X002513Y041626D01*
X002479Y041661D01*
X002448Y041700D01*
X002420Y041740D01*
X002396Y041783D01*
X002375Y041827D01*
X002357Y041873D01*
X002344Y041920D01*
X002334Y041968D01*
X002328Y042017D01*
X002326Y042066D01*
M02*
